<svg width="39" height="34" viewBox="0 0 39 34" fill="none" xmlns="http://www.w3.org/2000/svg">
<path d="M0.516565 29.5971C0.461986 28.8766 0.542614 28.1523 0.753487 27.4624C0.865126 27.0958 0.985448 26.7343 1.1467 26.3919C1.55977 25.5149 2.25441 24.8696 3.10906 24.4355C3.37328 24.3019 3.44398 24.1402 3.44398 23.85C3.4353 16.8122 3.43778 9.77571 3.43778 2.73794C3.43778 2.57628 3.43778 2.4159 3.43778 2.21223L3.91534 2.21223C7.49275 2.21223 11.0701 2.20842 14.6475 2.2186C14.9428 2.2186 15.0966 2.14223 15.2243 1.84819C15.8098 0.501478 17.2264 -0.215155 18.6926 0.0572418C20.0149 0.304181 21.0705 1.50196 21.197 2.90214C21.3297 4.35959 20.6215 5.61847 19.3165 6.20782C19.1131 6.29946 19.0449 6.40639 19.0486 6.62914C19.061 7.43997 19.0536 8.2508 19.0536 9.09981L19.9839 9.14309C19.9839 9.99974 20.0161 10.8488 19.9715 11.6927C19.9454 12.1929 20.1327 12.464 20.5309 12.7199C21.4637 13.3181 22.3655 13.9699 23.2785 14.5999C23.2983 14.6139 23.3107 14.6369 23.3492 14.6827C22.6359 15.7188 21.9177 16.76 21.1859 17.8229C20.6363 17.4232 20.1141 17.0439 19.5733 16.6518C19.9119 16.1554 20.2357 15.6806 20.5743 15.1829C19.7718 14.6318 18.994 14.0933 18.2088 13.5651C18.1456 13.5218 18.0116 13.5116 17.9508 13.5524C17.1557 14.0857 16.368 14.6305 15.5605 15.1855C15.9004 15.6806 16.2192 16.1465 16.5653 16.6518L14.9539 17.8267C14.2295 16.7778 13.5113 15.7354 12.7695 14.6598C13.1826 14.3759 13.5795 14.1022 13.9765 13.8286C14.6141 13.3907 15.2454 12.9439 15.8905 12.5188C16.0802 12.394 16.1522 12.2553 16.1497 12.0262C16.1398 11.0766 16.1447 10.1258 16.1447 9.13163L17.0825 9.13163C17.0825 8.21516 17.0875 7.34323 17.0738 6.4713C17.0738 6.39493 16.9597 6.28801 16.8741 6.24982C16.0629 5.8896 15.4886 5.29643 15.1313 4.46651C15.0904 4.37232 14.9415 4.26794 14.8423 4.26667C13.2099 4.25394 11.5762 4.25776 9.91282 4.25776L9.91282 23.8131L15.0767 23.8131L15.0767 20.0033L21.0271 20.0033L21.0271 23.8054L25.9107 23.8054L25.9107 19.997L31.8461 19.997L31.8461 23.8347C32.1265 23.8347 32.3671 23.836 32.609 23.8347C33.512 23.8283 34.4101 23.8143 35.2809 24.1529C37.3511 24.9561 38.7082 27.162 38.4737 29.3819C38.2244 31.7368 36.5201 33.585 34.2811 33.9172C33.9648 33.9643 33.641 33.9847 33.321 33.9847C24.0984 33.9885 14.877 33.9656 5.65443 34C2.8002 34.0101 0.78946 31.901 0.517805 29.6276C0.517805 29.6238 0.516565 29.6149 0.515324 29.6009L0.516565 29.5971ZM19.4381 31.9481C24.0054 31.9481 28.5714 31.9481 33.1386 31.9481C33.3607 31.9481 33.5852 31.9481 33.806 31.9252C34.9658 31.803 35.8031 31.1856 36.2583 30.1011C36.7024 29.0434 36.5759 28.011 35.8998 27.0793C35.2387 26.1679 34.3108 25.8522 33.2366 25.8522C24.1654 25.8561 15.0929 25.8548 6.02159 25.8561C5.71273 25.8561 5.40386 25.8713 5.09623 25.8981C3.06813 26.075 1.81654 28.4222 2.77043 30.2679C3.38444 31.4555 4.37554 31.9544 5.66311 31.9519C10.2552 31.943 14.846 31.9481 19.4381 31.9481ZM7.86984 23.8131L7.86984 4.27813L5.45844 4.27813L5.45844 23.8131L7.86984 23.8131ZM18.0786 2.02894C17.4274 2.02385 16.8927 2.55337 16.8816 3.21654C16.8704 3.88862 17.4212 4.45887 18.0761 4.45251C18.7211 4.44615 19.2533 3.89881 19.2545 3.23818C19.2557 2.57501 18.731 2.03403 18.0798 2.02894L18.0786 2.02894ZM27.9065 23.8016L29.8515 23.8016L29.8515 22.0349L27.9065 22.0349L27.9065 23.8016ZM17.0999 23.8067L19.0287 23.8067L19.0287 22.0425L17.0999 22.0425L17.0999 23.8067Z" fill="white"/>
<path d="M9.27405 27.9067L9.27405 29.9064L5.83062 29.9064L5.83062 27.9067L9.27405 27.9067Z" fill="white"/>
<path d="M13.7669 29.8987L13.7669 27.9156L17.2227 27.9156L17.2227 29.8987L13.7669 29.8987Z" fill="white"/>
<path d="M21.7205 29.9L21.7205 27.913L25.1789 27.913L25.1789 29.9L21.7205 29.9Z" fill="white"/>
<path d="M29.6779 29.9025L29.6779 27.9118L33.1362 27.9118L33.1362 29.9025L29.6779 29.9025Z" fill="white"/>
</svg>
