<svg width="33" height="32" viewBox="0 0 33 32" fill="none" xmlns="http://www.w3.org/2000/svg">
<path fill-rule="evenodd" clip-rule="evenodd" d="M20.9249 7.68777L20.6721 7.43799L17.5816 10.4909L17.5816 2.83088L25.3358 2.83088L22.4982 5.634C24.8301 7.93755 26.3753 10.8794 26.6282 14.3209L24.0435 14.3209C23.7906 11.9063 22.7511 9.60278 20.953 7.68777L20.9249 7.68777ZM8.1137 29.974L15.8679 29.974L15.8679 22.314L12.7774 25.3669L12.5246 25.1171C10.7265 23.3409 9.68701 21.0373 9.43415 18.595L6.84943 18.595C7.10228 22.0364 8.6475 24.9783 10.9794 27.1431L8.1137 29.974ZM8.92845 2.77537L14.5474 2.77537L14.5474 5.55074L13.1427 5.55074C12.5808 8.88118 11.457 11.6565 9.77129 13.3218C10.6141 13.5993 11.457 13.8768 12.5808 13.8768L13.4236 13.8768L13.4236 16.6522C10.8951 16.6522 8.92845 16.0971 6.96181 15.2645C5.55707 16.0971 3.59043 16.6522 1.34284 16.6522L0.5 16.6522L0.5 13.8768C2.18569 13.8768 3.30948 13.5993 4.71422 13.3218C3.30948 11.9341 2.46664 10.2689 1.90474 8.04857L1.90474 7.21596L4.71422 6.66089C4.99517 8.88118 5.83802 10.8239 7.24276 11.9341C8.92845 10.5464 10.0522 8.32611 10.3332 5.55074L0.5 5.55074L0.5 2.77537L6.11896 2.77537L6.11896 1.25154e-08L8.92845 1.8773e-08L8.92845 2.77537Z" fill="white"/>
<path d="M18.0312 32L23.3973 16.6245L27.1058 16.6245L32.5 32L29.5219 32L28.3982 28.7528L22.133 28.7528L21.0092 32L18.0312 32ZM22.9478 26.3105L27.5834 26.3105L25.2796 19.5108L22.9759 26.3105L22.9478 26.3105Z" fill="white"/>
</svg>
