<svg width="48" height="22" viewBox="0 0 48 22" fill="none" xmlns="http://www.w3.org/2000/svg">
<path d="M27.2504 7.1164L17.9029 7.1164L17.9029 1.26704L27.2504 1.26704L27.2504 7.1164ZM19.7191 5.3334L25.4342 5.3334L25.4342 3.05005L19.7191 3.05005L19.7191 5.3334Z" fill="white"/>
<path d="M9.23537 5.47938L3.65413 5.47938L3.65413 8.139e-09L9.23537 2.05703e-08L9.23537 5.47938ZM5.47028 3.69638L7.41923 3.69638L7.41923 1.783L5.47028 1.783L5.47028 3.69638Z" fill="white"/>
<path d="M34.7601 7.1164L25.4138 7.1164L25.4138 1.26704L34.7601 1.26704L34.7601 7.1164ZM27.2288 5.3334L32.9429 5.3334L32.9429 3.05005L27.2288 3.05005L27.2288 5.3334Z" fill="white"/>
<path d="M27.2504 11.1828L17.9029 11.1828L17.9029 5.3334L27.2504 5.3334L27.2504 11.1828ZM19.7191 9.39976L25.4342 9.39976L25.4342 7.1164L19.7191 7.1164L19.7191 9.39976Z" fill="white"/>
<path d="M14.4988 12.0776L1.62346 12.0776L1.62346 3.69638L10.6486 3.69638L14.4988 12.0776ZM3.4396 10.2946L11.6883 10.2946L9.47601 5.47938L3.4396 5.47938L3.4396 10.2946Z" fill="white"/>
<path d="M34.7601 11.1828L25.4138 11.1828L25.4138 5.3334L34.7601 5.3334L34.7601 11.1828ZM27.2288 9.39976L32.9429 9.39976L32.9429 7.1164L27.2288 7.1164L27.2288 9.39976Z" fill="white"/>
<path d="M27.2504 15.2502L17.9029 15.2502L17.9029 9.40087L27.2504 9.40087L27.2504 15.2502ZM19.7191 13.4672L25.4342 13.4672L25.4342 11.1839L19.7191 11.1839L19.7191 13.4672Z" fill="white"/>
<path d="M34.7601 15.2502L25.4138 15.2502L25.4138 9.40087L34.7601 9.40087L34.7601 15.2502ZM27.2288 13.4672L32.9429 13.4672L32.9429 11.1839L27.2288 11.1839L27.2288 13.4672Z" fill="white"/>
<path d="M42.2903 11.1828L32.9429 11.1828L32.9429 5.3334L42.2903 5.3334L42.2903 11.1828ZM34.7601 9.39976L40.4753 9.39976L40.4753 7.1164L34.7601 7.1164L34.7601 9.39976Z" fill="white"/>
<path d="M43.4913 22L6.12749 22C5.7881 22 5.47595 21.8139 5.32044 21.5175L0.1013 11.5951C-0.0439916 11.3187 -0.0326407 10.9877 0.133082 10.7225C0.297671 10.4573 0.591659 10.2946 0.908349 10.2946L14.9165 10.2946C15.2184 10.2946 15.5011 10.4417 15.6691 10.688L17.5749 13.4661L47.0929 13.4661C47.4107 13.4661 47.7058 13.6288 47.8693 13.8963C48.0327 14.1637 48.0441 14.4947 47.8965 14.771L44.2926 21.5219C44.136 21.815 43.8261 22 43.4879 22L43.4913 22ZM6.68028 20.217L42.9407 20.217L45.5923 15.2491L17.0925 15.2491C16.7905 15.2491 16.5079 15.102 16.3399 14.8557L14.4341 12.0776L2.39872 12.0776L6.68028 20.217Z" fill="white"/>
<path d="M42.2903 15.2502L32.9429 15.2502L32.9429 9.40087L42.2903 9.40087L42.2903 15.2502ZM34.7601 13.4672L40.4753 13.4672L40.4753 11.1839L34.7601 11.1839L34.7601 13.4672Z" fill="white"/>
<path d="M6.24554 15.1756C6.78718 15.1756 7.22626 14.7445 7.22626 14.2127C7.22626 13.681 6.78718 13.2499 6.24554 13.2499C5.70391 13.2499 5.26482 13.681 5.26482 14.2127C5.26482 14.7445 5.70391 15.1756 6.24554 15.1756Z" fill="white"/>
<path d="M9.3659 15.1756C9.90754 15.1756 10.3466 14.7445 10.3466 14.2127C10.3466 13.681 9.90754 13.2499 9.3659 13.2499C8.82427 13.2499 8.38519 13.681 8.38519 14.2127C8.38519 14.7445 8.82427 15.1756 9.3659 15.1756Z" fill="white"/>
<path d="M12.4863 15.1756C13.0279 15.1756 13.467 14.7445 13.467 14.2127C13.467 13.681 13.0279 13.2499 12.4863 13.2499C11.9446 13.2499 11.5055 13.681 11.5055 14.2127C11.5055 14.7445 11.9446 15.1756 12.4863 15.1756Z" fill="white"/>
<path d="M8.70301 6.41992L4.5622 6.41992L4.5622 8.20292L8.70301 8.20292L8.70301 6.41992Z" fill="white"/>
</svg>
