<svg width="60" height="60" viewBox="0 0 60 60" fill="none" xmlns="http://www.w3.org/2000/svg">
<circle cx="30" cy="30" r="30" fill="#EC5C13"/>
<path d="M34.2504 26.1164H24.9029V20.267H34.2504V26.1164ZM26.7191 24.3334H32.4342V22.05H26.7191V24.3334Z" fill="white"/>
<path d="M16.2354 24.4794H10.6541V19H16.2354V24.4794ZM12.4703 22.6964H14.4192V20.783H12.4703V22.6964Z" fill="white"/>
<path d="M41.7601 26.1164H32.4138V20.267H41.7601V26.1164ZM34.2288 24.3334H39.9429V22.05H34.2288V24.3334Z" fill="white"/>
<path d="M34.2504 30.1828H24.9029V24.3334H34.2504V30.1828ZM26.7191 28.3998H32.4342V26.1164H26.7191V28.3998Z" fill="white"/>
<path d="M21.4988 31.0776H8.62346V22.6964H17.6486L21.4988 31.0776ZM10.4396 29.2946H18.6883L16.476 24.4794H10.4396V29.2946Z" fill="white"/>
<path d="M41.7601 30.1828H32.4138V24.3334H41.7601V30.1828ZM34.2288 28.3998H39.9429V26.1164H34.2288V28.3998Z" fill="white"/>
<path d="M34.2504 34.2502H24.9029V28.4009H34.2504V34.2502ZM26.7191 32.4672H32.4342V30.1839H26.7191V32.4672Z" fill="white"/>
<path d="M41.7601 34.2502H32.4138V28.4009H41.7601V34.2502ZM34.2288 32.4672H39.9429V30.1839H34.2288V32.4672Z" fill="white"/>
<path d="M49.2903 30.1828H39.9429L39.9429 24.3334H49.2903V30.1828ZM41.7601 28.3998H47.4753V26.1164L41.7601 26.1164V28.3998Z" fill="white"/>
<path d="M50.4913 41H13.1275C12.7881 41 12.476 40.8139 12.3204 40.5175L7.1013 30.5951C6.95601 30.3187 6.96736 29.9877 7.13308 29.7225C7.29767 29.4573 7.59166 29.2946 7.90835 29.2946H21.9165C22.2184 29.2946 22.5011 29.4417 22.6691 29.688L24.5749 32.4661H54.0929C54.4107 32.4661 54.7058 32.6288 54.8693 32.8963C55.0327 33.1637 55.0441 33.4947 54.8965 33.771L51.2926 40.5219C51.136 40.815 50.8261 41 50.4879 41H50.4913ZM13.6803 39.217H49.9407L52.5923 34.2491H24.0925C23.7905 34.2491 23.5079 34.102 23.3399 33.8557L21.4341 31.0776H9.39872L13.6803 39.217Z" fill="white"/>
<path d="M49.2903 34.2502H39.9429V28.4009H49.2903V34.2502ZM41.7601 32.4672H47.4753V30.1839H41.7601V32.4672Z" fill="white"/>
<path d="M13.2455 34.1756C13.7872 34.1756 14.2263 33.7445 14.2263 33.2127C14.2263 32.681 13.7872 32.2499 13.2455 32.2499C12.7039 32.2499 12.2648 32.681 12.2648 33.2127C12.2648 33.7445 12.7039 34.1756 13.2455 34.1756Z" fill="white"/>
<path d="M16.3659 34.1756C16.9075 34.1756 17.3466 33.7445 17.3466 33.2127C17.3466 32.681 16.9075 32.2499 16.3659 32.2499C15.8243 32.2499 15.3852 32.681 15.3852 33.2127C15.3852 33.7445 15.8243 34.1756 16.3659 34.1756Z" fill="white"/>
<path d="M19.4863 34.1756C20.0279 34.1756 20.467 33.7445 20.467 33.2127C20.467 32.681 20.0279 32.2499 19.4863 32.2499C18.9446 32.2499 18.5055 32.681 18.5055 33.2127C18.5055 33.7445 18.9446 34.1756 19.4863 34.1756Z" fill="white"/>
<path d="M15.703 25.4199H11.5622V27.2029H15.703V25.4199Z" fill="white"/>
</svg>
