<svg width="60" height="60" viewBox="0 0 60 60" fill="none" xmlns="http://www.w3.org/2000/svg">
<circle cx="30" cy="30" r="30" fill="#1D71C9"/>
<path d="M46.2286 46.3112C45.892 46.8422 45.456 47.0013 44.8783 47C34.9588 46.988 25.0379 46.988 15.1184 47C14.5707 47 14.1469 46.8556 13.7763 46.3179C13.7763 46.1267 13.7763 45.8392 13.7763 45.553C13.7763 40.027 13.7722 33.8496 13.7845 28.325C13.7845 28.325 13.6714 28.1003 13.3198 27.7191C12.6944 27.0438 12.3006 26.2387 12.1276 25.3186C12.0227 24.7649 12.0118 24.2179 12.0063 23.6669C11.9995 23.0651 11.994 22.4887 12.0131 21.8641C12.0376 21.0483 12.2366 20.3957 12.6181 19.7377C13.1413 18.8363 13.67 17.9376 14.196 17.0389C14.8459 15.9289 15.5108 14.8282 16.1403 13.7075C16.4265 13.194 16.8284 13.0094 17.4089 13.0134C19.8833 13.0308 22.3577 13.0201 24.8322 13.0201C30.6667 13.0201 36.4998 13.0388 42.3344 13.0001C43.22 12.9947 43.7065 13.321 44.0893 14.0472C44.5635 14.9486 45.1208 15.8072 45.6318 16.6899C46.3199 17.8801 46.9916 19.0797 47.6811 20.27C47.9114 20.6672 48.0136 21.0724 47.9986 21.5352C47.97 22.4031 47.9849 23.2724 47.9917 24.1417C48.0026 25.5713 47.5585 26.8311 46.5488 27.8756C46.2722 28.1618 46.2272 28.1819 46.2272 28.1819C46.2327 33.7293 46.2313 39.9467 46.2313 45.4941V46.3099L46.2286 46.3112ZM20.8671 44.8308C20.8671 44.8308 20.8576 34.2054 20.8698 34.0503C20.9121 33.5033 21.3181 33.1154 21.8808 33.0766C22.0171 33.0673 38.0041 33.0646 38.1608 33.078C38.6868 33.1221 39.0846 33.5046 39.135 34.0182C39.15 34.1733 39.1664 44.8201 39.1664 44.8201L44.1548 44.7626C44.1548 44.7626 44.1548 34.5611 44.1534 29.4591C44.1534 29.4403 44.1343 29.4203 44.1193 29.4056C44.1057 29.3909 44.0853 29.3815 44.1398 29.4176C43.0388 29.5032 42.0182 29.5848 41.0004 29.2611C39.9853 28.9375 39.2086 28.2808 38.4374 27.5413C37.2929 28.8011 35.9494 29.5085 34.2175 29.5099C32.4844 29.5099 31.1504 28.781 30.0099 27.5386C29.766 27.7726 29.5616 27.9759 29.3504 28.1712C28.007 29.4149 26.3705 29.7172 24.6346 29.4189C23.6113 29.2424 22.6888 28.7342 21.968 27.9452C21.84 27.8047 21.6833 27.6884 21.5416 27.5627C19.6599 29.4858 17.9185 29.7506 15.9073 29.3815C15.8869 29.4189 15.8501 29.4577 15.8501 29.4952C15.8488 34.5758 15.8528 44.7385 15.8528 44.7385L15.8855 44.7933L15.9223 44.8321H20.8671V44.8308ZM22.9913 35.1964L23.0145 44.8629L37.0599 44.7973L36.9945 35.179L22.99 35.1964H22.9913ZM20.461 22.1437H14.1878C14.1878 22.9982 14.2218 23.8194 14.1796 24.6365C14.1197 25.7826 15.1361 26.9689 16.1458 27.3059C17.086 27.6188 18.0507 27.6255 18.9391 27.0719C19.777 26.5503 20.3643 25.8308 20.4447 24.8478C20.5183 23.9665 20.4597 23.0745 20.4597 22.1437H20.461ZM39.5397 22.1263C39.5397 22.9688 39.5384 23.7445 39.5397 24.5215C39.5438 25.6649 40.0997 26.5289 41.0794 27.0585C42.2621 27.6977 43.4598 27.7312 44.6044 26.8592C45.3852 26.2654 45.8348 25.5459 45.8212 24.563C45.8116 23.8956 45.8225 23.2283 45.8171 22.5623C45.8171 22.4151 45.783 22.2694 45.7653 22.1263H39.5397ZM22.6371 22.1236C22.6371 22.9822 22.6643 23.7806 22.6303 24.5763C22.5839 25.6797 23.505 26.9649 24.6809 27.326C25.5611 27.5974 26.4495 27.6081 27.2902 27.132C28.3217 26.5463 28.8967 25.6904 28.9171 24.5081C28.928 23.8635 28.9226 23.2189 28.9171 22.5743C28.9171 22.4272 28.8885 22.2801 28.8722 22.1249H22.6371V22.1236ZM31.0973 22.1249C31.0973 23.0865 31.0973 23.9932 31.0973 24.9013C31.0973 24.9454 31.0973 24.9923 31.1082 25.0337C31.6273 26.9221 33.2379 27.8649 35.1959 27.3714C36.4426 27.0571 37.4509 25.7104 37.3773 24.5135C37.3378 23.8715 37.3733 23.2242 37.3692 22.5796C37.3692 22.4312 37.3419 22.2841 37.3269 22.1249H31.0986H31.0973ZM28.9008 15.18H24.4656L23.0404 19.929L28.9022 19.8822V15.18H28.9008ZM36.9141 19.9637L35.4888 15.18H31.0877L31.1245 19.9637H36.9154H36.9141ZM22.2433 15.18H17.74L14.9726 19.8915L20.7853 19.9209L22.2433 15.18ZM39.2291 19.945H45.0622C44.0975 18.3014 42.2758 15.18 42.2758 15.18H37.7834C37.7834 15.18 38.7467 18.3723 39.2291 19.945Z" fill="white"/>
</svg>
