<svg width="60" height="60" viewBox="0 0 60 60" fill="none" xmlns="http://www.w3.org/2000/svg">
<circle cx="30" cy="30" r="30" fill="#2A9B0D"/>
<path d="M12.0166 41.5971C11.962 40.8766 12.0426 40.1523 12.2535 39.4624C12.3651 39.0958 12.4854 38.7343 12.6467 38.3919C13.0598 37.5149 13.7544 36.8696 14.6091 36.4355C14.8733 36.3019 14.944 36.1402 14.944 35.85C14.9353 28.8122 14.9378 21.7757 14.9378 14.7379C14.9378 14.5763 14.9378 14.4159 14.9378 14.2122H15.4153C18.9927 14.2122 22.5701 14.2084 26.1475 14.2186C26.4428 14.2186 26.5966 14.1422 26.7243 13.8482C27.3098 12.5015 28.7264 11.7848 30.1926 12.0572C31.5149 12.3042 32.5705 13.502 32.697 14.9021C32.8297 16.3596 32.1215 17.6185 30.8165 18.2078C30.6131 18.2995 30.5449 18.4064 30.5486 18.6291C30.561 19.44 30.5536 20.2508 30.5536 21.0998L31.4839 21.1431C31.4839 21.9997 31.5161 22.8488 31.4715 23.6927C31.4454 24.1929 31.6327 24.464 32.0309 24.7199C32.9637 25.3181 33.8655 25.9699 34.7785 26.5999C34.7983 26.6139 34.8107 26.6369 34.8492 26.6827C34.1359 27.7188 33.4177 28.76 32.6859 29.8229C32.1363 29.4232 31.6141 29.0439 31.0733 28.6518C31.4119 28.1554 31.7357 27.6806 32.0743 27.1829C31.2718 26.6318 30.494 26.0933 29.7088 25.5651C29.6456 25.5218 29.5116 25.5116 29.4508 25.5524C28.6557 26.0857 27.868 26.6305 27.0605 27.1855C27.4004 27.6806 27.7192 28.1465 28.0653 28.6518L26.4539 29.8267C25.7295 28.7778 25.0113 27.7354 24.2695 26.6598C24.6826 26.3759 25.0795 26.1022 25.4765 25.8286C26.1141 25.3907 26.7454 24.9439 27.3905 24.5188C27.5802 24.394 27.6522 24.2553 27.6497 24.0262C27.6398 23.0766 27.6447 22.1258 27.6447 21.1316H28.5825C28.5825 20.2152 28.5875 19.3432 28.5738 18.4713C28.5738 18.3949 28.4597 18.288 28.3741 18.2498C27.5629 17.8896 26.9886 17.2964 26.6313 16.4665C26.5904 16.3723 26.4415 16.2679 26.3423 16.2667C24.7099 16.2539 23.0762 16.2578 21.4128 16.2578V35.8131H26.5767V32.0033H32.5271V35.8054H37.4107V31.997H43.3461V35.8347C43.6265 35.8347 43.8671 35.836 44.109 35.8347C45.012 35.8283 45.9101 35.8143 46.7809 36.1529C48.8511 36.9561 50.2082 39.162 49.9737 41.3819C49.7244 43.7368 48.0201 45.585 45.7811 45.9172C45.4648 45.9643 45.141 45.9847 44.821 45.9847C35.5984 45.9885 26.377 45.9656 17.1544 46C14.3002 46.0101 12.2895 43.901 12.0178 41.6276C12.0178 41.6238 12.0166 41.6149 12.0153 41.6009L12.0166 41.5971ZM30.9381 43.9481C35.5054 43.9481 40.0714 43.9481 44.6386 43.9481C44.8607 43.9481 45.0852 43.9481 45.306 43.9252C46.4658 43.803 47.3031 43.1856 47.7583 42.1011C48.2024 41.0434 48.0759 40.011 47.3998 39.0793C46.7387 38.1679 45.8108 37.8522 44.7366 37.8522C35.6654 37.8561 26.5929 37.8548 17.5216 37.8561C17.2127 37.8561 16.9039 37.8713 16.5962 37.8981C14.5681 38.075 13.3165 40.4222 14.2704 42.2679C14.8844 43.4555 15.8755 43.9544 17.1631 43.9519C21.7552 43.943 26.346 43.9481 30.9381 43.9481ZM19.3698 35.8131V16.2781H16.9584V35.8131H19.3698ZM29.5786 14.0289C28.9274 14.0238 28.3927 14.5534 28.3816 15.2165C28.3704 15.8886 28.9212 16.4589 29.5761 16.4525C30.2211 16.4461 30.7533 15.8988 30.7545 15.2382C30.7557 14.575 30.231 14.034 29.5798 14.0289H29.5786ZM39.4065 35.8016H41.3515V34.0349H39.4065V35.8016ZM28.5999 35.8067H30.5287V34.0425H28.5999V35.8067Z" fill="white"/>
<path d="M20.7741 39.9067V41.9064H17.3306V39.9067H20.7741Z" fill="white"/>
<path d="M25.2669 41.8987V39.9156H28.7227V41.8987H25.2669Z" fill="white"/>
<path d="M33.2205 41.9V39.913H36.6789V41.9H33.2205Z" fill="white"/>
<path d="M41.1779 41.9025V39.9118H44.6362V41.9025H41.1779Z" fill="white"/>
</svg>
