<svg width="60" height="60" viewBox="0 0 60 60" fill="none" xmlns="http://www.w3.org/2000/svg">
<circle cx="30" cy="30" r="30" fill="#2F3C4A"/>
<path fill-rule="evenodd" clip-rule="evenodd" d="M34.4249 21.6878L34.1721 21.438L31.0816 24.4909V16.8309H38.8358L35.9982 19.634C38.3301 21.9376 39.8753 24.8794 40.1282 28.3209H37.5435C37.2906 25.9063 36.2511 23.6028 34.453 21.6878H34.4249ZM21.6137 43.974H29.3679V36.314L26.2774 39.3669L26.0246 39.1171C24.2265 37.3409 23.187 35.0373 22.9342 32.595H20.3494C20.6023 36.0364 22.1475 38.9783 24.4794 41.1431L21.6137 43.974ZM22.4284 16.7754H28.0474V19.5507H26.6427C26.0808 22.8812 24.957 25.6565 23.2713 27.3218C24.1141 27.5993 24.957 27.8768 26.0808 27.8768H26.9236V30.6522C24.3951 30.6522 22.4284 30.0971 20.4618 29.2645C19.0571 30.0971 17.0904 30.6522 14.8428 30.6522H14V27.8768C15.6857 27.8768 16.8095 27.5993 18.2142 27.3218C16.8095 25.9341 15.9666 24.2689 15.4047 22.0486V21.216L18.2142 20.6609C18.4952 22.8812 19.338 24.8239 20.7428 25.9341C22.4284 24.5464 23.5522 22.3261 23.8332 19.5507H14V16.7754H19.619V14H22.4284V16.7754Z" fill="white"/>
<path d="M31.5312 46L36.8973 30.6245H40.6058L46 46H43.0219L41.8982 42.7528H35.633L34.5092 46H31.5312ZM36.4478 40.3105H41.0834L38.7796 33.5108L36.4759 40.3105H36.4478Z" fill="white"/>
</svg>
