<svg width="17" height="17" viewBox="0 0 17 17" fill="none" xmlns="http://www.w3.org/2000/svg">
<path d="M1.29359 6.92243L0.230859 5.34508C-0.203256 4.70117 -0.00653607 3.84029 0.670151 3.42676L5.91355 0.219926C6.59024 -0.193608 7.49323 -0.00621468 7.92734 0.638392L8.23055 1.08856L7.42149 1.58311L7.11827 1.13294C6.97036 0.913847 6.66271 0.849738 6.43271 0.990636L1.18931 4.19676C0.959314 4.33766 0.892015 4.63073 1.03992 4.84982L2.10266 6.42717L1.29359 6.92243Z" fill="#1D71C9"/>
<path d="M4.57039 5.33855L4.42766 3.52802C4.36554 2.76576 4.96679 2.0965 5.76772 2.03732L11.9799 1.57799C12.3682 1.54981 12.7446 1.66606 13.0404 1.90769C13.3363 2.14863 13.516 2.48537 13.5456 2.85523L13.5855 3.34767L12.627 3.41882L12.5871 2.92638C12.5767 2.80028 12.5161 2.68615 12.4148 2.60373C12.3142 2.5213 12.1863 2.48185 12.0539 2.49172L5.84168 2.95104C5.56878 2.97147 5.36393 3.19902 5.38538 3.45898L5.52811 5.27092L4.56965 5.33926L4.57039 5.33855Z" fill="#1D71C9"/>
<path d="M12.7675 16.2392C12.6278 16.2392 12.4858 16.2201 12.3453 16.1793L11.2788 15.8714L11.5576 14.995L12.6241 15.3029C12.8859 15.379 13.1632 15.2374 13.2431 14.988L16.0171 6.27488C16.0963 6.02549 15.9483 5.76131 15.6865 5.68522L9.72356 3.96275C9.46176 3.88737 9.18443 4.02827 9.10456 4.27766L8.68967 5.61618L7.76746 5.35693L8.18308 4.01488C8.41752 3.27869 9.23324 2.86375 10.0016 3.08566L15.9646 4.80813C16.7337 5.03005 17.1693 5.8071 16.9364 6.53977L14.1623 15.2529C13.9715 15.8517 13.3917 16.2385 12.7668 16.2385L12.7675 16.2392Z" fill="#1D71C9"/>
<path d="M6.19443 17C3.041 17 0.474762 14.5562 0.474762 11.5515C0.474762 8.5469 3.04026 6.10303 6.19443 6.10303C9.3486 6.10303 11.9141 8.5469 11.9141 11.5515C11.9141 14.5562 9.3486 17 6.19443 17ZM6.19443 7.512C3.85598 7.512 1.95386 9.32395 1.95386 11.5515C1.95386 13.7791 3.85598 15.5911 6.19443 15.5911C8.53288 15.5911 10.435 13.7791 10.435 11.5515C10.435 9.32395 8.53288 7.512 6.19443 7.512Z" fill="#1D71C9"/>
<path d="M9.1892 7.70018L2.14938 14.4062L3.19526 15.4025L10.2351 8.69647L9.1892 7.70018Z" fill="#1D71C9"/>
</svg>
