<svg width="18" height="18" viewBox="0 0 18 18" fill="none" xmlns="http://www.w3.org/2000/svg">
<path d="M15.6224 17.4992H4.73054C4.45891 17.4992 4.23873 17.2774 4.23873 17.0038V15.7996C4.23873 15.6662 4.29169 15.5389 4.38627 15.446L5.53183 14.3149V12.1915L0.269366 9.50026C0.104417 9.41566 0 9.24493 0 9.0582V8.21905C0 7.94543 0.220184 7.72364 0.491819 7.72364H6.68647V8.71446H0.983638V8.75409L6.2461 11.4453C6.41105 11.5299 6.51547 11.7006 6.51547 11.8874V14.523C6.51547 14.6563 6.4625 14.7836 6.36792 14.8766L5.22236 16.0077V16.5084H15.1306V16.0077L13.9851 14.8766C13.8905 14.7836 13.8375 14.6556 13.8375 14.523V12.8782C13.8375 12.7311 13.9026 12.5916 14.0146 12.4971L16.2618 10.6123V8.71446H11.2922V7.72364H16.7536C17.0253 7.72364 17.2455 7.94543 17.2455 8.21905V10.8447C17.2455 10.9918 17.1804 11.1313 17.0684 11.2258L14.8212 13.1107V14.3157L15.9667 15.4467C16.0613 15.5397 16.1143 15.6677 16.1143 15.8004V17.0046C16.1143 17.2782 15.8941 17.5 15.6224 17.5V17.4992Z" fill="#1D71C9"/>
<path d="M10.991 14.0275H6.02365V15.0184H10.991V14.0275Z" fill="#1D71C9"/>
<path d="M16.7529 10.3493H9.51557V11.3401H16.7529V10.3493Z" fill="#1D71C9"/>
<path d="M14.3286 14.0275H13.0158V15.0184H14.3286V14.0275Z" fill="#1D71C9"/>
<path d="M7.93948 8.52087C7.73745 8.52087 7.54905 8.39511 7.47641 8.19313L5.63322 3.02409C5.58934 2.90062 5.59539 2.76419 5.65138 2.6453C5.70662 2.5264 5.80725 2.43494 5.92983 2.38997L8.85426 1.33208C8.97684 1.28787 9.11228 1.29397 9.23031 1.35037C9.34835 1.40677 9.43915 1.50737 9.48379 1.63085L11.327 6.79989C11.4185 7.0575 11.2861 7.34103 11.0304 7.43325L8.10594 8.49114C8.0507 8.51096 7.99471 8.5201 7.93948 8.5201V8.52087ZM6.72506 3.15519L8.23608 7.39133L10.2344 6.66803L8.72336 2.43189L6.72506 3.15519Z" fill="#1D71C9"/>
<path d="M10.2147 5.62081C10.1428 5.62081 10.0709 5.6048 10.0051 5.57355C9.88708 5.51715 9.79628 5.41655 9.75164 5.29307L9.22048 3.80303C9.12892 3.54542 9.26133 3.26189 9.51708 3.16967L16.8111 0.529509C17.0669 0.436524 17.3484 0.570666 17.4399 0.828279L17.9711 2.31832C18.015 2.44179 18.0089 2.57822 17.9529 2.69712C17.8977 2.81602 17.797 2.90748 17.6745 2.95245L10.3797 5.59184C10.3259 5.61166 10.2692 5.62081 10.2132 5.62081H10.2147ZM10.3123 3.93412L10.5113 4.49203L16.88 2.18723L16.681 1.62932L10.3123 3.93412Z" fill="#1D71C9"/>
</svg>
