<svg width="21" height="14" viewBox="0 0 21 14" fill="none" xmlns="http://www.w3.org/2000/svg">
<path d="M12.494 13.9339H8.9844C8.28685 13.9339 7.88956 13.1476 7.42959 12.238C7.27912 11.9402 7.0488 11.4837 6.87854 11.2545C6.70827 11.4837 6.47795 11.9408 6.32749 12.238C5.86751 13.1483 5.47023 13.9339 4.77267 13.9339H1.26312C0.566887 13.9339 0 13.3736 0 12.684C0 11.5105 1.17733 10.2018 2.12368 9.15042C2.18374 9.08315 2.24379 9.01654 2.30187 8.95189C1.28094 8.7501 0 8.24792 0 7.12731C0 5.32036 3.05419 4.26114 4.22822 3.92091C4.34503 2.44701 5.08548 1.01556 6.87788 1.01556C8.67027 1.01556 9.41138 2.44701 9.52753 3.92091C10.7016 4.26114 13.7558 5.32036 13.7558 7.12731C13.7558 8.24792 12.4755 8.74945 11.4539 8.95189C11.512 9.01654 11.572 9.08315 11.6321 9.15042C12.5784 10.2018 13.7558 11.5111 13.7558 12.684C13.7558 13.3729 13.1895 13.9339 12.4926 13.9339H12.494ZM9.06821 12.8237H12.4933C12.5712 12.8237 12.6345 12.761 12.6345 12.684C12.6345 11.933 11.5278 10.7027 10.7953 9.88835C10.3868 9.43383 10.0641 9.07532 9.9004 8.79125C9.8014 8.6195 9.80272 8.40857 9.90303 8.23747C10.0033 8.06638 10.1881 7.96124 10.3881 7.96124C10.6626 7.96124 11.3067 7.88744 11.8664 7.68958C12.3329 7.52436 12.6345 7.30363 12.6345 7.12731C12.6345 6.32212 10.6692 5.338 8.84779 4.8874C8.59834 4.82536 8.42279 4.60333 8.42279 4.34865C8.42279 3.67994 8.27233 2.12572 6.87788 2.12572C5.48343 2.12572 5.33296 3.68059 5.33296 4.34865C5.33296 4.60333 5.15808 4.82536 4.90796 4.8874C3.08653 5.338 1.12124 6.32212 1.12124 7.12731C1.12124 7.30428 1.42283 7.52501 1.8894 7.68958C2.44903 7.88744 3.09313 7.96124 3.36767 7.96124C3.56763 7.96124 3.75241 8.06638 3.85272 8.23747C3.95303 8.40857 3.95435 8.6195 3.85536 8.79125C3.6917 9.07532 3.36899 9.43449 2.96048 9.88835C2.22795 10.7027 1.12124 11.933 1.12124 12.684C1.12124 12.761 1.18459 12.8237 1.26246 12.8237H4.68754C4.85715 12.6631 5.1462 12.0917 5.32306 11.7417C5.78304 10.8313 6.18032 10.0457 6.87788 10.0457C7.57543 10.0457 7.97272 10.832 8.43269 11.7417C8.60956 12.0923 8.89861 12.6631 9.06821 12.8237Z" fill="#1D71C9"/>
<path d="M18.279 11.4484C18.1998 11.4484 18.1199 11.4406 18.0394 11.4256L13.8739 10.6171L14.0897 9.52787L18.2552 10.3363C18.3205 10.3487 18.3846 10.3069 18.3971 10.2416L19.8754 2.78202C19.8879 2.71736 19.8457 2.65402 19.7797 2.64161L12.2412 1.17881C12.2009 1.17098 12.1693 1.18404 12.1508 1.1971C12.1316 1.20951 12.1072 1.23302 12.0993 1.2735L11.7086 3.24436L10.6078 3.03082L10.9985 1.05996C11.0625 0.737362 11.2493 0.459169 11.5252 0.275666C11.801 0.0921632 12.1323 0.0262066 12.4577 0.0895511L19.9961 1.55235C20.6686 1.68296 21.1081 2.33077 20.9768 2.99556L19.4985 10.4552C19.3824 11.041 18.861 11.4484 18.2796 11.4484H18.279Z" fill="#1D71C9"/>
<path d="M15.2485 6.59639C15.7169 6.59639 16.0966 6.22069 16.0966 5.75724C16.0966 5.29379 15.7169 4.91809 15.2485 4.91809C14.7802 4.91809 14.4005 5.29379 14.4005 5.75724C14.4005 6.22069 14.7802 6.59639 15.2485 6.59639Z" fill="#1D71C9"/>
<path d="M13.4238 3.75504C13.89 3.75504 14.2679 3.38109 14.2679 2.91981C14.2679 2.45852 13.89 2.08457 13.4238 2.08457C12.9576 2.08457 12.5797 2.45852 12.5797 2.91981C12.5797 3.38109 12.9576 3.75504 13.4238 3.75504Z" fill="#1D71C9"/>
<path d="M18.0427 4.69933C18.5074 4.69933 18.8841 4.32655 18.8841 3.86671C18.8841 3.40686 18.5074 3.03409 18.0427 3.03409C17.578 3.03409 17.2013 3.40686 17.2013 3.86671C17.2013 4.32655 17.578 4.69933 18.0427 4.69933Z" fill="#1D71C9"/>
<path d="M17.0726 9.37767C17.5351 9.37767 17.9101 9.00665 17.9101 8.54897C17.9101 8.09129 17.5351 7.72027 17.0726 7.72027C16.6101 7.72027 16.2351 8.09129 16.2351 8.54897C16.2351 9.00665 16.6101 9.37767 17.0726 9.37767Z" fill="#1D71C9"/>
</svg>
