<svg width="19" height="19" viewBox="0 0 19 19" fill="none" xmlns="http://www.w3.org/2000/svg">
<path d="M6.75972 19H0.437465C0.195985 19 0 18.804 0 18.5625V11.9682C0 11.7267 0.195985 11.5307 0.437465 11.5307H1.97559C1.93885 11.3916 1.9196 11.2472 1.9196 11.1011C1.9196 10.6225 2.12433 10.1649 2.4813 9.84559C2.83828 9.52624 3.31686 9.37401 3.79545 9.42738C4.55139 9.51137 5.17259 10.1203 5.27233 10.8736C5.30208 11.0967 5.28721 11.319 5.23121 11.5298H6.75972C7.0012 11.5298 7.19718 11.7258 7.19718 11.9673V14.0619C7.19718 14.2386 7.09307 14.4005 6.93208 14.4731C6.77109 14.5457 6.58036 14.5177 6.44737 14.4005C6.26626 14.2412 6.0344 14.1721 5.79467 14.2071C5.43857 14.2579 5.15072 14.5545 5.11135 14.9123C5.0851 15.1477 5.15597 15.3725 5.31171 15.5458C5.46482 15.7173 5.6853 15.8152 5.91453 15.8152C6.10964 15.8152 6.2995 15.7435 6.44737 15.6131C6.58123 15.4959 6.77109 15.4679 6.93208 15.5405C7.09307 15.6131 7.19718 15.775 7.19718 15.9517V18.5608C7.19718 18.8023 7.0012 18.9982 6.75972 18.9982V19ZM0.874931 18.1251H6.32225V16.6412C6.19014 16.6744 6.05277 16.6919 5.91453 16.6919C5.43595 16.6919 4.97836 16.4872 4.65901 16.1302C4.33966 15.7741 4.18742 15.2947 4.24079 14.8161C4.32566 14.0549 4.91361 13.4486 5.6713 13.3409C5.89178 13.3094 6.11227 13.3217 6.32225 13.3742V12.4048H4.53039C4.35103 12.4048 4.18829 12.2989 4.11655 12.1344C4.04481 11.9699 4.07718 11.7783 4.19879 11.6471C4.36416 11.4677 4.43765 11.2341 4.4044 10.9883C4.35716 10.6278 4.05968 10.3373 3.69833 10.2971C3.46298 10.2717 3.23812 10.3417 3.06488 10.4974C2.8934 10.6505 2.7954 10.871 2.7954 11.1002C2.7954 11.3032 2.87152 11.4975 3.00976 11.6471C3.13138 11.7801 3.16288 11.9708 3.09113 12.1353C3.01939 12.2989 2.85665 12.4048 2.67816 12.4048H0.874931V18.1242V18.1251ZM4.84362 12.2394C4.84362 12.2394 4.84274 12.2403 4.84187 12.2412C4.84187 12.2412 4.84274 12.2403 4.84362 12.2394Z" fill="#1D71C9"/>
<path d="M13.6357 9.85172C13.5237 9.85172 13.4117 9.80885 13.326 9.72398L11.8447 8.24272C11.7196 8.11848 11.6785 7.93037 11.7415 7.76414C11.8036 7.5979 11.9585 7.48416 12.1361 7.47279C12.3758 7.45791 12.5884 7.34242 12.7345 7.14819C12.9506 6.86033 12.9445 6.44737 12.7188 6.16564C12.5709 5.98103 12.3618 5.87254 12.1291 5.85941C11.8999 5.84629 11.6741 5.93291 11.5123 6.09477C11.374 6.23301 11.2909 6.41762 11.2787 6.61448C11.2673 6.79121 11.1535 6.94608 10.9873 7.0082C10.8219 7.07119 10.6338 7.03007 10.5087 6.90496L8.8201 5.21634C8.64949 5.04573 8.64949 4.76837 8.8201 4.59776L13.2901 0.12774C13.3724 0.0454964 13.4835 0 13.5998 0C13.7162 0 13.8273 0.0463713 13.9096 0.12774L14.8125 1.03067L14.1939 1.64924L13.6007 1.05604L9.74927 4.90749L10.6426 5.80079C10.7126 5.68355 10.7974 5.57506 10.8954 5.47707C11.234 5.13847 11.703 4.96086 12.1798 4.98623C12.6575 5.01248 13.1038 5.24346 13.4047 5.61968C13.8824 6.21726 13.8956 7.06244 13.4362 7.67402C13.3024 7.85163 13.1379 7.99949 12.9524 8.11061L13.6375 8.79568L14.9044 7.52878C15.0312 7.40192 15.2211 7.36167 15.3882 7.42729C15.5553 7.49291 15.6682 7.6504 15.6752 7.82976C15.6848 8.07386 15.7985 8.29172 15.9954 8.44221C16.2841 8.66357 16.6997 8.65919 16.9841 8.43171C17.1687 8.28385 17.2781 8.07474 17.2903 7.84201C17.3034 7.6119 17.2168 7.38704 17.0549 7.22518C16.9115 7.08169 16.7198 6.9977 16.5169 6.98982C16.3375 6.98282 16.18 6.86996 16.1144 6.70372C16.0488 6.53748 16.089 6.34762 16.215 6.22076L17.4898 4.94598L16.8213 4.27841L17.4399 3.65984L18.4172 4.63713C18.4995 4.71938 18.545 4.83049 18.545 4.94686C18.545 5.06323 18.4986 5.17434 18.4172 5.25659L17.3297 6.34412C17.4539 6.41674 17.5694 6.50511 17.6727 6.60835C18.0112 6.94695 18.1897 7.41504 18.1635 7.89275C18.1372 8.37046 17.9063 8.81668 17.5292 9.11766C16.9351 9.59274 16.0654 9.60149 15.4626 9.13953C15.2841 9.00304 15.1371 8.83505 15.0277 8.64607L13.9472 9.72661C13.8615 9.81235 13.7495 9.85435 13.6375 9.85435L13.6357 9.85172ZM12.193 8.34684C12.193 8.34684 12.193 8.34684 12.1921 8.34684C12.1921 8.34684 12.1921 8.34684 12.193 8.34684ZM12.4633 7.62327L12.4651 7.62502C12.4651 7.62502 12.4642 7.62415 12.4633 7.62327ZM10.4055 6.55936C10.4055 6.55936 10.4055 6.56023 10.4055 6.56111C10.4055 6.56111 10.4055 6.56111 10.4055 6.55936Z" fill="#1D71C9"/>
<path d="M17.782 5.23821L16.2054 3.66158C16.0785 3.53559 16.0392 3.34573 16.1039 3.17862C16.1687 3.01151 16.327 2.89864 16.5064 2.89077C16.7505 2.88114 16.9683 2.7674 17.1188 2.57054C17.3402 2.28181 17.3349 1.86622 17.1083 1.58187C16.9605 1.39726 16.7514 1.28877 16.5186 1.27564C16.2885 1.26339 16.0637 1.34914 15.9009 1.511C15.7574 1.65449 15.6735 1.8461 15.6656 2.04908C15.6586 2.22844 15.5457 2.38593 15.3786 2.45155C15.2115 2.5163 15.0216 2.47692 14.8956 2.35006L13.312 0.766434L13.9306 0.147858L15.0181 1.2354C15.0907 1.11116 15.1791 0.995666 15.2824 0.892424C15.621 0.553826 16.0899 0.374465 16.5668 0.401588C17.0445 0.427836 17.4907 0.658817 17.7917 1.03591C18.2667 1.62999 18.2755 2.49967 17.8135 3.1025C17.677 3.28099 17.5091 3.42797 17.3201 3.53734L18.4006 4.61788L17.782 5.23646V5.23821ZM16.8231 3.043L16.8249 3.04475C16.8249 3.04475 16.824 3.04388 16.8231 3.043Z" fill="#1D71C9"/>
<path d="M7.19718 11.9874H6.32225V9.37838C6.32225 9.20165 6.42637 9.03978 6.58736 8.96716C6.74834 8.89367 6.93908 8.92254 7.07207 9.03978C7.21993 9.17015 7.40979 9.24189 7.6049 9.24189C7.83501 9.24189 8.05461 9.1439 8.20773 8.97241C8.36347 8.7983 8.43433 8.57345 8.40809 8.33896C8.36784 7.98112 8.08086 7.68364 7.72477 7.63377C7.48416 7.59965 7.2523 7.66877 7.07207 7.82713C6.93908 7.94437 6.74834 7.97324 6.58736 7.89975C6.42637 7.82713 6.32225 7.66527 6.32225 7.48853V5.83141H4.53039C4.35103 5.83141 4.18829 5.72555 4.11655 5.56106C4.04481 5.39657 4.07718 5.20496 4.19879 5.07372C4.36416 4.89436 4.43765 4.66076 4.4044 4.4149C4.35716 4.05443 4.05968 3.76395 3.69833 3.7237C3.46385 3.69833 3.23812 3.76833 3.06401 3.92406C2.89252 4.07718 2.79453 4.29766 2.79453 4.52689C2.79453 4.72987 2.87065 4.92411 3.00889 5.07372C3.1305 5.20671 3.162 5.39745 3.09026 5.56193C3.01851 5.72555 2.85577 5.83141 2.67729 5.83141H0.874931V11.9883H0V5.39307C0 5.15159 0.195985 4.95561 0.437465 4.95561H1.97559C1.93885 4.81649 1.9196 4.67213 1.9196 4.52602C1.9196 4.04743 2.12433 3.58984 2.4813 3.27049C2.83828 2.95114 3.31686 2.7989 3.79545 2.85227C4.55139 2.93627 5.17259 3.54522 5.27233 4.29853C5.30208 4.52164 5.28721 4.74387 5.23121 4.95473H6.75972C7.0012 4.95473 7.19718 5.15072 7.19718 5.3922V6.79909C7.40717 6.74659 7.62765 6.73434 7.84813 6.76584C8.60582 6.87346 9.19378 7.47978 9.27864 8.24097C9.33201 8.71956 9.17978 9.19815 8.86043 9.55512C8.54108 9.91209 8.08349 10.1168 7.60578 10.1168C7.46754 10.1168 7.33017 10.0993 7.19806 10.0661V11.9874H7.19718ZM4.84362 5.66343C4.84362 5.66343 4.84274 5.6643 4.84187 5.66518C4.84187 5.66518 4.84274 5.6643 4.84362 5.66343Z" fill="#1D71C9"/>
<path d="M13.1065 19H6.77466V18.1251H12.6691V12.424H11.4477C11.4809 12.5561 11.4984 12.6935 11.4984 12.8317C11.4984 13.3103 11.2937 13.7679 10.9367 14.0864C10.5806 14.4057 10.1011 14.5571 9.62256 14.5046C8.86137 14.4197 8.25504 13.8318 8.14743 13.0741C8.11593 12.8536 8.12818 12.6331 8.18155 12.4231H6.77466V11.5482H8.86924C9.04598 11.5482 9.20784 11.6523 9.28046 11.8133C9.35308 11.9743 9.32508 12.165 9.20784 12.298C9.0486 12.4791 8.97948 12.7101 9.01361 12.9507C9.06435 13.3068 9.36095 13.5947 9.7188 13.6341C9.95416 13.6603 10.179 13.5894 10.3523 13.4337C10.5237 13.2806 10.6217 13.0601 10.6217 12.8309C10.6217 12.6349 10.55 12.4459 10.4196 12.298C10.3024 12.1659 10.2735 11.9752 10.347 11.8142C10.4196 11.6523 10.5815 11.5482 10.7591 11.5482H13.1057C13.3471 11.5482 13.5431 11.7442 13.5431 11.9857V18.5617C13.5431 18.8031 13.3471 18.9991 13.1057 18.9991L13.1065 19ZM11.0776 11.7206C11.0776 11.7206 11.0784 11.7223 11.0793 11.7223C11.0793 11.7223 11.0784 11.7215 11.0776 11.7206Z" fill="#1D71C9"/>
</svg>
