<svg width="15" height="20" viewBox="0 0 15 20" fill="none" xmlns="http://www.w3.org/2000/svg">
<path d="M14.9946 6.73878C14.9359 6.47828 14.8118 6.22369 14.6261 5.98216C14.4198 5.71366 14.1497 5.47593 13.8006 5.25548C13.3713 4.98445 12.8693 4.76821 12.2654 4.59413C11.8394 4.47105 11.3874 4.38042 10.8833 4.31593C10.2844 4.23964 9.64915 4.21308 8.9957 4.23711C8.68303 4.24849 8.38237 4.27125 8.09203 4.3054V5.5341C8.52753 5.47424 8.97254 5.44347 9.41961 5.44347C9.49282 5.44347 9.56602 5.44432 9.63922 5.446C10.6161 5.4675 11.4606 5.60238 12.2216 5.85782C12.6257 5.99354 12.9441 6.14234 13.2245 6.32612C13.4239 6.45721 13.5595 6.57439 13.6646 6.70716C13.7076 6.76154 13.744 6.81465 13.7721 6.86565C13.8709 7.04268 13.8701 7.20876 13.7692 7.38917C13.6807 7.54765 13.5455 7.69055 13.344 7.83807C13.0454 8.05684 12.6893 8.23219 12.2232 8.38941C11.8217 8.52514 11.392 8.62545 10.9101 8.69669C10.5251 8.75359 10.1235 8.78774 9.71656 8.79743C9.65618 8.79912 9.59663 8.7987 9.53293 8.79827C9.50357 8.79827 9.47379 8.79827 9.44443 8.79827C8.54945 8.79743 7.76283 8.70133 7.03907 8.50364C6.51589 8.36075 6.10521 8.19299 5.74664 7.97506C5.48899 7.81826 5.31735 7.672 5.19038 7.50087C5.16267 7.46335 5.14075 7.43005 5.12256 7.39886C5.06176 7.29264 5.03529 7.19063 5.04356 7.08779V6.75901H3.89506C3.88265 6.81591 3.8719 6.87282 3.86528 6.93098C3.85164 7.0469 3.84419 7.15143 3.84336 7.25049C3.8413 7.44944 3.84171 7.94893 3.84212 8.2794V8.50701C3.79787 8.51923 3.75403 8.53146 3.71019 8.5441C3.07742 8.72704 2.57865 8.94285 2.14026 9.22316C1.80112 9.44024 1.53561 9.67755 1.32799 9.94942C1.14354 10.1914 1.02029 10.4573 0.962806 10.7406L0.959084 10.7596V13.4244L0.966528 13.4501C1.05048 13.7447 1.22088 14.0069 1.50252 14.275C1.69111 14.4545 1.91445 14.6155 2.20188 14.7795C2.19981 14.8558 2.19816 14.9304 2.19774 15.005C2.19774 15.1576 2.19774 15.3494 2.19816 15.5551C2.19899 15.993 2.19981 16.4896 2.19568 16.8125C2.19154 17.121 2.28046 17.4038 2.4674 17.6774C2.64689 17.94 2.88718 18.1659 3.22424 18.3889C3.64774 18.6688 4.13245 18.8871 4.74951 19.0755C5.18542 19.2087 5.65152 19.3112 6.13623 19.3799C6.52747 19.4355 6.85585 19.4675 7.16976 19.4806C7.18713 19.4815 7.21029 19.4857 7.23469 19.4899C7.24999 19.4928 7.2653 19.4954 7.28101 19.4979L8.27484 19.5L8.28642 19.4983C8.3042 19.4962 8.3224 19.4933 8.34018 19.4907C8.37327 19.4857 8.4047 19.481 8.43282 19.4798C9.31539 19.43 10.1206 19.2867 10.8948 19.0406C11.4676 18.8585 11.9449 18.6401 12.3535 18.3733C12.679 18.1604 12.9152 17.9446 13.0963 17.6943C13.2332 17.505 13.3213 17.2997 13.3581 17.0839L13.361 17.0679V14.5291L13.3581 14.5127C13.3155 14.2707 13.2162 14.0389 13.055 13.8041C12.8473 13.5019 12.5698 13.2439 12.1819 12.9923C12.1558 12.9754 12.1298 12.959 12.1033 12.9421V11.5845C12.1219 11.5794 12.1405 11.5743 12.1591 11.5693C12.8184 11.3922 13.3709 11.1684 13.8482 10.8856C14.1939 10.6807 14.452 10.4696 14.6596 10.2209C14.8371 10.0084 14.9471 9.79557 14.9959 9.57048L15 9.55025V6.76069L14.9955 6.73962L14.9946 6.73878ZM9.82368 10.0122C10.9709 9.97344 11.9557 9.79388 12.8345 9.46257C13.2105 9.32095 13.538 9.15909 13.8279 8.97109C13.806 9.18859 13.7502 9.43813 13.6948 9.5022C13.5376 9.65057 13.3428 9.78334 13.0822 9.91991C12.6257 10.1589 12.0996 10.3435 11.4743 10.4847C11.0698 10.5758 10.6442 10.6386 10.2091 10.671C9.76619 10.7043 9.30547 10.7077 8.84061 10.6816C8.3621 10.6546 7.89724 10.5952 7.45844 10.5058C6.85916 10.3832 6.34343 10.2145 5.8823 9.98988C5.63539 9.86933 5.4497 9.753 5.29833 9.62359C5.23712 9.5709 5.17425 9.50726 5.10188 9.42338C5.06921 9.35846 5.04604 9.14813 5.03777 8.95676C5.39634 9.19281 5.80661 9.38502 6.30456 9.55278C6.75536 9.70452 7.23883 9.81833 7.78309 9.89968C8.44109 9.99831 9.12804 10.0363 9.82409 10.0126L9.82368 10.0122ZM12.1422 16.9756C12.081 17.0573 12.002 17.1336 11.8949 17.2154C11.6397 17.4093 11.3361 17.5733 10.9391 17.7309C10.4928 17.9084 10.0152 18.0412 9.47834 18.1373C8.86832 18.2464 8.23844 18.2957 7.60526 18.2827C6.64824 18.2633 5.80413 18.1339 5.02537 17.8869C4.59773 17.7512 4.25735 17.6032 3.95379 17.4207C3.73914 17.2917 3.59191 17.1745 3.47776 17.0413C3.44302 16.9941 3.41076 16.8314 3.39505 16.67C3.83096 16.9545 4.33511 17.1754 4.95671 17.3562C5.3951 17.4835 5.85335 17.5762 6.35791 17.6395C6.74336 17.6875 7.15115 17.7157 7.60401 17.7254C8.04819 17.7347 8.50106 17.717 8.95021 17.6723C9.85304 17.5821 10.633 17.4 11.3345 17.1155C11.6517 16.987 11.9325 16.8428 12.1852 16.6784C12.1782 16.8082 12.1633 16.9326 12.143 16.9756H12.1422ZM3.5671 13.5563C4.02617 13.6971 4.51791 13.8003 5.07045 13.872C5.60437 13.9411 6.15857 13.9694 6.76404 13.9576C7.8199 13.9369 8.74962 13.7911 9.60614 13.5116C10.1057 13.3485 10.5334 13.1508 10.9048 12.9105C10.8961 13.0446 10.8775 13.1727 10.8531 13.2174C10.7662 13.3093 10.6868 13.3906 10.6016 13.4564C10.344 13.6549 10.0387 13.8172 9.61193 13.9824C9.10943 14.1772 8.57344 14.3163 7.97292 14.4077C7.42204 14.492 6.85337 14.5283 6.28305 14.5152C5.90298 14.5068 5.52248 14.4773 5.15316 14.4275C4.52949 14.3441 3.97571 14.2113 3.46039 14.0225C3.07122 13.8796 2.76724 13.7278 2.50379 13.5441C2.36731 13.4492 2.26805 13.3607 2.19113 13.2667C2.15515 13.2212 2.12413 13.0597 2.11089 12.9004C2.51992 13.1681 2.99016 13.3792 3.56668 13.5559L3.5671 13.5563ZM12.0901 15.1504C12.0115 15.2739 11.904 15.3869 11.7505 15.5066C11.4904 15.7094 11.1798 15.8754 10.7732 16.0289C10.3551 16.1869 9.88696 16.3066 9.34228 16.3952C8.70702 16.4984 8.04075 16.533 7.30583 16.5014C6.44476 16.4643 5.6875 16.329 4.99021 16.0883C4.58449 15.9484 4.26563 15.7941 3.98729 15.6031C3.87107 15.5235 3.77843 15.4493 3.70192 15.3734C4.06876 15.4742 4.45091 15.5534 4.86035 15.6137C5.39055 15.6917 5.93978 15.7317 6.49315 15.7325H6.50804C7.00392 15.7325 7.50021 15.6997 7.98244 15.6343C8.7095 15.5361 9.35758 15.3789 9.96388 15.153C10.4883 14.9574 10.9002 14.7416 11.2604 14.4731C11.4188 14.355 11.5504 14.2374 11.6604 14.1156C11.8332 14.2379 11.9536 14.3496 12.0495 14.4739C12.1302 14.5784 12.1749 14.6724 12.1902 14.769C12.2096 14.8912 12.1778 15.0126 12.0901 15.1509V15.1504ZM9.12846 11.909C9.4833 11.9187 9.84808 11.9103 10.2356 11.8842C10.0057 12.0342 9.73931 12.1632 9.41258 12.2837C9.00976 12.4325 8.56475 12.5451 8.05233 12.6281C7.42328 12.7301 6.76611 12.7647 6.04359 12.7343C5.14778 12.6964 4.36323 12.5548 3.64568 12.301C3.2168 12.1497 2.88635 11.9824 2.60553 11.7741C2.42521 11.6405 2.30073 11.5128 2.21263 11.372C2.1295 11.2388 2.10014 11.1195 2.11999 10.996C2.13447 10.9067 2.17252 10.8203 2.24034 10.7242C2.34043 10.5829 2.47608 10.4557 2.66757 10.3237C2.94549 10.1324 3.26684 9.9764 3.67917 9.8335C3.76396 9.804 3.84957 9.77744 3.9389 9.74962C4.04395 10.0207 4.2222 10.2668 4.48069 10.4991C4.80617 10.7912 5.19907 11.0289 5.71811 11.246C6.2479 11.4677 6.82401 11.6317 7.47994 11.7463C8.00932 11.8386 8.56392 11.8934 9.12846 11.9082V11.909Z" fill="#fff"/>
<path d="M4.22675 5.45823L4.98235 5.46708L5.4377 6.10145C5.51794 6.21231 5.64532 6.27638 5.77932 6.27638L5.77849 6.27849C5.80248 6.27849 5.82646 6.27596 5.85045 6.27216C6.00968 6.24434 6.1383 6.12843 6.18297 5.97331L6.38272 5.2774L7.07712 5.07718C7.23262 5.0325 7.34842 4.90268 7.37531 4.74377C7.4026 4.58401 7.33726 4.42342 7.20657 4.32942L6.5738 3.87293L6.5647 3.11505C6.56263 2.95698 6.47288 2.81367 6.33185 2.74286C6.19082 2.67204 6.02208 2.68722 5.89512 2.78037L5.31404 3.2082L4.5998 2.9494C4.44636 2.89418 4.27514 2.93254 4.15975 3.04803C4.04478 3.16352 4.0059 3.33508 4.06132 3.48893L4.31939 4.20465L3.89217 4.78718C3.79911 4.91406 3.78422 5.0835 3.85453 5.22513C3.92525 5.36634 4.06794 5.45654 4.22592 5.45865L4.22675 5.45823ZM5.05638 4.6249L5.13124 4.52247C5.21478 4.40909 5.23588 4.26156 5.18831 4.1292L5.15854 4.04701L5.24084 4.07694C5.37277 4.12415 5.51959 4.10265 5.63291 4.02003L5.73506 3.94458L5.73713 4.09506C5.73837 4.22952 5.80372 4.35387 5.91166 4.43227L6.0134 4.50561L5.9282 4.53006C5.78924 4.5701 5.68047 4.67928 5.64035 4.8188L5.61595 4.90436L5.54275 4.80193C5.46458 4.69361 5.33968 4.62869 5.2061 4.62701L5.05597 4.6249H5.0568H5.05638Z" fill="#fff"/>
<path d="M10.121 2.96752C10.4498 2.96752 10.7592 2.83938 10.9916 2.60629C11.224 2.37319 11.3523 2.06338 11.3523 1.73376C11.3523 1.40414 11.224 1.09391 10.9916 0.861234C10.7592 0.628139 10.4498 0.5 10.121 0.5C9.79225 0.5 9.48289 0.628139 9.25046 0.861234C8.7703 1.34218 8.7703 2.12534 9.25046 2.60671C9.48289 2.8398 9.79225 2.96794 10.121 2.96794V2.96752ZM9.84684 1.45936C9.92211 1.38349 10.0218 1.34513 10.121 1.34513C10.2203 1.34513 10.3196 1.38349 10.3952 1.45936C10.4945 1.55799 10.509 1.67391 10.509 1.73418C10.509 1.79446 10.4945 1.90953 10.3952 2.00901C10.2968 2.10848 10.181 2.12324 10.121 2.12324C10.0611 2.12324 9.9461 2.10891 9.84684 2.00901C9.69588 1.85769 9.69588 1.6111 9.84684 1.45936Z" fill="#fff"/>
<path d="M2.67501 2.13082H2.6746H2.67418H2.67501Z" fill="#fff"/>
<path d="M2.6746 2.13082C2.87684 2.13082 3.07825 2.05369 3.23169 1.89984C3.53897 1.59171 3.53897 1.09096 3.23169 0.782833C2.9244 0.474708 2.4248 0.474708 2.11751 0.782833C1.81022 1.09096 1.81022 1.59171 2.11751 1.89984C2.27095 2.05369 2.47319 2.13082 2.6746 2.13082ZM2.53646 1.20181C2.57327 1.16514 2.62373 1.14407 2.67584 1.14407C2.72795 1.14407 2.77841 1.16514 2.81521 1.20181C2.89214 1.27895 2.89214 1.40372 2.81521 1.48085C2.7416 1.55462 2.61049 1.55378 2.53688 1.48085C2.45995 1.40372 2.45995 1.27895 2.53688 1.20181H2.53646Z" fill="#fff"/>
<path d="M1.95001 7.89329L2.58981 7.24164L1.93471 6.57354L2.57575 5.9202L1.93595 5.26812L1.29491 5.92189L0.639803 5.25379L0 5.90587L0.655105 6.57354L0.0140616 7.2273L0.653864 7.87896L1.29491 7.22562L1.95001 7.89329Z" fill="#fff"/>
</svg>
