<svg width="18" height="11" viewBox="0 0 18 11" fill="none" xmlns="http://www.w3.org/2000/svg">
<path d="M4.74518 6.94136C2.87368 6.94136 1.35171 5.40718 1.35171 3.52067C1.35171 1.63416 2.87368 0.0999756 4.74518 0.0999756C6.61667 0.0999756 8.13864 1.63416 8.13864 3.52067C8.13864 5.40718 6.61667 6.94136 4.74518 6.94136ZM4.74518 1.63486C3.71392 1.63486 2.87437 2.48044 2.87437 3.52067C2.87437 4.5609 3.71322 5.40648 4.74518 5.40648C5.77713 5.40648 6.61598 4.5609 6.61598 3.52067C6.61598 2.48044 5.77713 1.63486 4.74518 1.63486Z" fill="#1D71C9"/>
<path d="M8.1608 10.9L8.1435 10.1939C8.07082 8.39951 6.62083 6.9951 4.84139 6.9951C3.06194 6.9951 1.61195 8.39951 1.53928 10.1939L1.52197 10.9L0 10.863L0.017303 10.1395C0.119737 7.51556 2.23832 5.46022 4.84139 5.46022C7.44446 5.46022 9.56304 7.51556 9.66547 10.1395V10.1507L9.68278 10.8623L8.1608 10.9Z" fill="#1D71C9"/>
<path d="M13.0624 6.94136C11.1909 6.94136 9.66893 5.40718 9.66893 3.52067C9.66893 1.63416 11.1916 0.0999756 13.0624 0.0999756C14.9332 0.0999756 16.4559 1.63416 16.4559 3.52067C16.4559 5.40718 14.9339 6.94136 13.0624 6.94136ZM13.0624 1.63486C12.0311 1.63486 11.1916 2.48044 11.1916 3.52067C11.1916 4.5609 12.0304 5.40648 13.0624 5.40648C14.0943 5.40648 14.9332 4.5609 14.9332 3.52067C14.9332 2.48044 14.0943 1.63486 13.0624 1.63486Z" fill="#1D71C9"/>
<path d="M16.478 10.9L16.4607 10.1939C16.3881 8.39951 14.9381 6.9951 13.1586 6.9951C11.3792 6.9951 9.92917 8.39951 9.8565 10.1939L9.8392 10.9L8.31722 10.863L8.33453 10.1395C8.43696 7.51556 10.5555 5.46022 13.1586 5.46022C15.7617 5.46022 17.8803 7.51556 17.9827 10.1395V10.1507L18 10.8623L16.478 10.9Z" fill="#1D71C9"/>
</svg>
