<svg width="20" height="15" viewBox="0 0 20 15" fill="none" xmlns="http://www.w3.org/2000/svg">
<path d="M19.2909 10.1692L3.61938 14.9561C3.10475 15.1133 2.56897 14.8352 2.42565 14.3365L0.0356054 6.0207C-0.107719 5.52202 0.194639 4.98795 0.709269 4.83075L16.3808 0.0439331C16.8955 -0.113259 17.4312 0.164814 17.5746 0.663489L19.9644 8.97854C20.1077 9.47722 19.8056 10.0121 19.2909 10.1692ZM3.4769 13.8437L18.8226 9.15638L16.5233 1.15633L1.17761 5.84362L3.4769 13.8437Z" fill="#1D71C9"/>
<path d="M16.6431 9.37624L5.31971 12.8349C5.01657 12.9275 4.70311 12.7649 4.61869 12.4711C4.54081 12.2001 4.25039 12.0494 3.97075 12.1348C3.66761 12.2274 3.35416 12.0647 3.26973 11.771L2.08038 7.63282C1.99596 7.33908 2.17285 7.02662 2.47599 6.93403C2.75171 6.84981 2.91557 6.5661 2.8447 6.29877C2.84186 6.2889 2.83868 6.28079 2.83528 6.27192C2.78935 6.1299 2.80483 5.97326 2.87855 5.83845C2.95228 5.70364 3.07726 5.60189 3.22531 5.55667L14.5519 2.09701C14.6999 2.05179 14.8593 2.06669 14.9916 2.13857C15.1238 2.21046 15.2202 2.33213 15.2569 2.47778C15.2595 2.48689 15.2619 2.49524 15.263 2.50482C15.345 2.76956 15.6316 2.9157 15.9081 2.83124C16.2112 2.73865 16.5247 2.90134 16.6091 3.19508L17.7984 7.33325C17.8829 7.62699 17.706 7.93945 17.4028 8.03204C17.1232 8.11745 16.9593 8.40695 17.0372 8.67792C17.1216 8.97166 16.9447 9.28413 16.6416 9.37672L16.6431 9.37624ZM5.46627 11.6343L15.8858 8.45166C15.9242 7.97177 16.1785 7.52255 16.5775 7.22977L15.6397 3.96675C15.1383 3.94485 14.6767 3.69945 14.3928 3.30151L3.99678 6.47694C3.96896 6.97009 3.71151 7.43513 3.30266 7.73505L4.24049 10.9981C4.72978 11.0195 5.18043 11.2534 5.46627 11.6343Z" fill="#1D71C9"/>
<path d="M10.6744 9.84449C9.34039 10.2519 7.95238 9.53156 7.58087 8.23895C7.20936 6.94634 7.99266 5.56273 9.32663 5.15527C10.6606 4.74782 12.0486 5.46821 12.4201 6.76081C12.7916 8.05342 12.0083 9.43703 10.6744 9.84449ZM9.63204 6.2179C8.90278 6.44065 8.4744 7.19734 8.67749 7.90399C8.88059 8.61063 9.63969 9.00461 10.3689 8.78186C11.0982 8.55912 11.5266 7.80242 11.3235 7.09577C11.1204 6.38913 10.3613 5.99515 9.63204 6.2179Z" fill="#1D71C9"/>
<path d="M6.33929 9.19614L4.99044 9.60814C4.68731 9.70073 4.37385 9.53805 4.28943 9.24431C4.205 8.95057 4.3819 8.63811 4.68504 8.54551L6.03388 8.13351C6.33702 8.04092 6.65048 8.2036 6.7349 8.49734C6.81932 8.79109 6.64243 9.10355 6.33929 9.19614Z" fill="#1D71C9"/>
<path d="M15.4178 6.42315L14.0689 6.83515C13.7658 6.92774 13.4523 6.76505 13.3679 6.47131C13.2835 6.17757 13.4604 5.86511 13.7635 5.77252L15.1124 5.36052C15.4155 5.26793 15.729 5.43061 15.8134 5.72435C15.8978 6.01809 15.7209 6.33055 15.4178 6.42315Z" fill="#1D71C9"/>
</svg>
