<svg width="20" height="13" viewBox="0 0 20 13" fill="none" xmlns="http://www.w3.org/2000/svg">
<path d="M4.22034 2.34822L6.68782 6.7119C5.60044 7.62725 4.89095 8.99561 4.83092 10.5496L4.80977 11.1106H0L0.0434503 10.1229C0.149788 7.68271 1.0971 5.39258 2.71046 3.67396C2.75963 3.62142 2.80937 3.56946 2.85968 3.51809C3.28446 3.08377 3.73953 2.69323 4.22034 2.34822Z" fill="#1D71C9"/>
<path d="M9.9494 1.37566C11.1225 1.37566 12.2517 1.59574 13.3179 2.03123L11.6925 4.9063C11.1311 4.73234 10.548 4.64477 9.9494 4.64477C9.38227 4.64477 8.82771 4.72416 8.29259 4.88061L6.66323 1.99854C7.70602 1.58465 8.8077 1.37566 9.9494 1.37566ZM9.9494 0.5C8.36234 0.5 6.82845 0.879451 5.4455 1.59632L7.90727 5.95008C8.53271 5.67337 9.22333 5.52042 9.9494 5.52042C10.6755 5.52042 11.4256 5.6868 12.0722 5.98627L14.5311 1.63718C13.1281 0.893461 11.5662 0.5 9.9494 0.5Z" fill="#1D71C9"/>
<path d="M15.9958 3.71775C16.1456 3.8526 16.2913 3.99271 16.4326 4.1369C18.0459 5.78605 18.9921 7.94133 19.1173 10.235H15.9083C15.7951 8.88353 15.2451 7.60741 14.3567 6.61734L15.9963 3.71775M15.7499 2.40076L13.279 6.77087C14.3281 7.68447 15.0096 9.02831 15.0679 10.5496L15.089 11.1106H20L19.9857 10.5128C19.9251 7.88295 18.8783 5.39842 17.0391 3.5181C16.6355 3.10537 16.2044 2.73235 15.7499 2.40076Z" fill="#1D71C9"/>
<path d="M9.98828 12.5C10.7398 12.5 11.3489 11.878 11.3489 11.1106C11.3489 10.3433 10.7398 9.72125 9.98828 9.72125C9.23681 9.72125 8.62761 10.3433 8.62761 11.1106C8.62761 11.878 9.23681 12.5 9.98828 12.5Z" fill="#1D71C9"/>
<path d="M9.99001 9.72125C9.52007 9.72125 9.0627 9.97052 8.81058 10.4159C8.43497 11.0803 8.65794 11.9297 9.30854 12.3138C9.52293 12.4399 9.75676 12.5 9.98773 12.5C10.4577 12.5 10.915 12.2507 11.1672 11.8053C11.5428 11.141 11.3198 10.2916 10.6692 9.90748C10.4548 9.78138 10.221 9.72125 9.99001 9.72125Z" fill="#1D71C9"/>
<path d="M6.58116 8.42783L6.00946 9.43895L9.25937 11.3549L9.83108 10.3438L6.58116 8.42783Z" fill="#1D71C9"/>
</svg>
