<svg width="12" height="13" viewBox="0 0 12 13" fill="none" xmlns="http://www.w3.org/2000/svg">
<path d="M5.58717 7.91138C3.41863 7.91138 1.65361 6.13757 1.65361 3.95676C1.65361 1.77595 3.41798 0.00213623 5.58717 0.00213623C7.75636 0.00213623 9.52073 1.77595 9.52073 3.95676C9.52073 6.13757 7.75636 7.91138 5.58717 7.91138ZM5.58717 1.43473C4.20431 1.43473 3.07858 2.56584 3.07858 3.95676C3.07858 5.34768 4.20366 6.47879 5.58717 6.47879C6.97069 6.47879 8.09576 5.34768 8.09576 3.95676C8.09576 2.56584 6.97069 1.43473 5.58717 1.43473Z" fill="#1D71C9"/>
<path d="M9.98579 12.9972L9.96506 12.0946C9.87179 9.78553 8.00184 7.97785 5.70505 7.97785C3.40826 7.97785 1.53767 9.78553 1.44505 12.0946L1.42432 12.9972L0 12.9639L0.0213745 12.0438C0.141849 8.96048 2.63878 6.54525 5.7057 6.54525C8.77262 6.54525 11.2696 8.96048 11.39 12.0438V12.0555L11.4114 12.9646L9.98708 12.9978L9.98579 12.9972Z" fill="#1D71C9"/>
</svg>
