<svg width="17" height="16" viewBox="0 0 17 16" fill="none" xmlns="http://www.w3.org/2000/svg">
<path d="M8.40013 9.4511C9.20155 9.4511 9.85123 8.80142 9.85123 8C9.85123 7.19858 9.20155 6.5489 8.40013 6.5489C7.59871 6.5489 6.94904 7.19858 6.94904 8C6.94904 8.80142 7.59871 9.4511 8.40013 9.4511Z" fill="#1D71C9"/>
<path d="M8.40013 7.4632C8.69574 7.4632 8.93643 7.70389 8.93643 7.9995C8.93643 8.29511 8.69574 8.5358 8.40013 8.5358C8.10452 8.5358 7.86383 8.29511 7.86383 7.9995C7.86383 7.70389 8.10452 7.4632 8.40013 7.4632ZM8.40013 6.5489C7.59871 6.5489 6.94904 7.19858 6.94904 8C6.94904 8.80142 7.59871 9.4511 8.40013 9.4511C9.20155 9.4511 9.85123 8.80142 9.85123 8C9.85123 7.19858 9.20155 6.5489 8.40013 6.5489Z" fill="#1D71C9"/>
<path d="M9.23304 2.93864H7.61916V8.23519H9.23304V2.93864Z" fill="#1D71C9"/>
<path d="M9.25644 7.75211L8.11525 8.8933L11.8605 12.6385L13.0017 11.4973L9.25644 7.75211Z" fill="#1D71C9"/>
<path d="M8.5 1.49803C10.2367 1.49803 11.8696 2.17415 13.0975 3.40253C14.3254 4.63042 15.002 6.26328 15.002 8C15.002 9.73672 14.3259 11.3696 13.0975 12.5975C11.8696 13.8254 10.2367 14.502 8.5 14.502C6.76328 14.502 5.13042 13.8259 3.90253 12.5975C2.67465 11.3696 1.99803 9.73672 1.99803 8C1.99803 6.26328 2.67415 4.63042 3.90253 3.40253C5.13042 2.17465 6.76328 1.49803 8.5 1.49803ZM8.5 0C4.0818 0 0.5 3.5818 0.5 8C0.5 12.4182 4.0818 16 8.5 16C12.9182 16 16.5 12.4182 16.5 8C16.5 3.5818 12.9177 0 8.5 0Z" fill="#1D71C9"/>
</svg>
