<svg width="20" height="14" viewBox="0 0 20 14" fill="none" xmlns="http://www.w3.org/2000/svg">
<path d="M2.00098 2.14412C2.00098 2.14412 1.99971 1.23271 2.00098 0.813469C2.00478 0.0661173 2.08584 -0.0140862 2.8838 0.00171146C5.44869 0.0539653 7.84765 0.627542 9.98315 2.11738C10.1225 2.03597 10.2669 1.95941 10.4011 1.8707C12.5037 0.501161 14.8647 0.0187243 17.3599 0.00292667C17.8615 -0.000718946 17.9983 0.129308 18.0223 0.61539C18.0464 1.0954 18.0274 2.11981 18.0274 2.11981C18.0274 2.11981 18.8178 2.1344 19.1889 2.1429C19.8741 2.1587 19.9957 2.26928 19.997 2.93157C20.0008 6.35116 20.0008 9.77196 19.9982 13.1916C19.9982 13.9024 19.8969 13.9984 19.1547 13.9984C13.0585 13.9997 6.96229 13.9984 0.866095 13.9984C0.739434 13.9984 0.611507 14.0057 0.487379 13.9887C0.201125 13.9486 0.0339326 13.7858 0.00860044 13.5063C-0.00406566 13.3653 0.00100078 13.2231 0.00100078 13.081C0.00100078 9.74158 0.00100078 6.4022 0.00100078 3.06281C0.00100078 2.22311 0.0871302 2.14412 0.992756 2.14169C1.30308 2.14169 1.99971 2.14169 1.99971 2.14169L2.00098 2.14412ZM16.9976 10.6664L16.9622 0.924052C14.6215 1.04557 12.4074 1.52679 10.5379 2.94129C10.4176 4.0131 10.4657 11.9277 10.5987 12.3919C12.5658 11.2229 14.738 10.7417 16.9976 10.6664ZM3.00667 0.920407V10.6664C5.3081 10.7466 7.47147 11.2387 9.51451 12.4503C9.51451 12.1282 9.49551 5.61353 9.52971 2.94129C9.52971 2.94129 9.33592 2.78696 8.83307 2.48802C7.3828 1.62887 5.79574 1.19504 4.12255 1.00426C3.77296 0.964154 3.41958 0.950787 3.00793 0.920407H3.00667ZM8.39229 13.0239C8.35303 12.9558 8.0617 12.7431 7.92871 12.6836C6.79256 12.1793 5.60702 11.8342 4.36194 11.7017C3.81856 11.6434 3.27012 11.6166 2.72421 11.5875C2.10104 11.5547 2.01364 11.472 2.00098 10.8535C1.99844 10.7125 1.96805 3.12236 1.96805 3.12236H1.04722L1.08522 13.0239H8.39229ZM18.0591 3.11021C18.0489 3.31558 18.035 3.47355 18.035 3.63153C18.0337 5.22831 18.035 6.8263 18.035 8.42308C18.035 9.21175 18.0413 10.0004 18.0325 10.7891C18.0249 11.4599 17.9071 11.568 17.2294 11.5875C17.1028 11.5911 16.9761 11.5899 16.8507 11.5948C15.2143 11.6677 13.6373 11.9873 12.1465 12.6556C11.9565 12.7407 11.7323 12.793 11.6044 13.0202H18.9482C19.0723 12.3725 19.0533 3.5975 18.9254 3.11021H18.0591Z" fill="#fff"/>
</svg>
