<svg width="19" height="13" viewBox="0 0 19 13" fill="none" xmlns="http://www.w3.org/2000/svg">
<path d="M14.3792 9.30272C12.6278 9.30272 11.2035 7.87077 11.2035 6.10998C11.2035 4.34919 12.6278 2.91724 14.3792 2.91724C16.1306 2.91724 17.555 4.34919 17.555 6.10998C17.555 7.87077 16.1306 9.30272 14.3792 9.30272ZM14.3792 4.34984C13.4141 4.34984 12.6284 5.13907 12.6284 6.10998C12.6284 7.08089 13.4135 7.87012 14.3792 7.87012C15.345 7.87012 16.13 7.08089 16.13 6.10998C16.13 5.13907 15.345 4.34984 14.3792 4.34984Z" fill="#1D71C9"/>
<path d="M18.9838 12.2988V12.2884C18.8879 9.83928 16.9046 7.9209 14.4686 7.9209C13.3221 7.9209 12.2767 8.34612 11.4807 9.0507L12.267 10.2769C12.8279 9.70579 13.6065 9.3535 14.4692 9.3535C16.1352 9.3535 17.4915 10.6643 17.5595 12.3392L17.5757 12.9982L19 12.963L18.9838 12.2988Z" fill="#1D71C9"/>
<path d="M5.58717 7.91111C3.41863 7.91111 1.65361 6.13729 1.65361 3.95649C1.65361 1.77568 3.41798 0.00186157 5.58717 0.00186157C7.75636 0.00186157 9.52073 1.77568 9.52073 3.95649C9.52073 6.13729 7.75636 7.91111 5.58717 7.91111ZM5.58717 1.43446C4.20431 1.43446 3.07858 2.56556 3.07858 3.95649C3.07858 5.34741 4.20366 6.47851 5.58717 6.47851C6.97069 6.47851 8.09576 5.34741 8.09576 3.95649C8.09576 2.56556 6.97069 1.43446 5.58717 1.43446Z" fill="#1D71C9"/>
<path d="M9.98579 12.9969L9.96506 12.0943C9.87179 9.78525 8.00184 7.97758 5.70505 7.97758C3.40826 7.97758 1.53767 9.78525 1.44505 12.0943L1.42432 12.9969L0 12.9637L0.0213745 12.0435C0.141849 8.96021 2.63878 6.54498 5.7057 6.54498C8.77262 6.54498 11.2696 8.96021 11.39 12.0435V12.0553L11.4114 12.9643L9.98708 12.9975L9.98579 12.9969Z" fill="#1D71C9"/>
</svg>
