<svg width="243" height="342" viewBox="0 0 243 342" fill="none" xmlns="http://www.w3.org/2000/svg">
<g opacity="0.5">
<line y1="-1" x2="297.274" y2="-1" transform="matrix(-0.996193 -0.0871737 -0.0871737 0.996193 388.346 80.7081)" stroke="white" stroke-width="2"/>
<line y1="-1" x2="366.885" y2="-1" transform="matrix(-0.996195 -0.0871558 -0.0871558 0.996195 384.202 128.086)" stroke="white" stroke-width="2"/>
<line y1="-1" x2="366.885" y2="-1" transform="matrix(-0.996195 -0.0871558 -0.0871558 0.996195 380.056 175.464)" stroke="white" stroke-width="2"/>
<line y1="-1" x2="366.885" y2="-1" transform="matrix(-0.996195 -0.0871558 -0.0871558 0.996195 375.911 222.843)" stroke="white" stroke-width="2"/>
<line y1="-1" x2="366.885" y2="-1" transform="matrix(-0.996195 -0.0871558 -0.0871558 0.996195 371.766 270.221)" stroke="white" stroke-width="2"/>
<line y1="-1" x2="353.976" y2="-1" transform="matrix(-0.996195 -0.0871558 -0.0871558 0.996195 367.621 317.599)" stroke="white" stroke-width="2"/>
<line y1="-1" x2="311.173" y2="-1" transform="matrix(0.0871559 -0.996195 -0.996195 -0.0871559 236.215 330.655)" stroke="white" stroke-width="2"/>
<line y1="-1" x2="311.173" y2="-1" transform="matrix(0.0871559 -0.996195 -0.996195 -0.0871559 188.836 326.51)" stroke="white" stroke-width="2"/>
<line y1="-1" x2="311.173" y2="-1" transform="matrix(0.0871559 -0.996195 -0.996195 -0.0871559 141.458 322.365)" stroke="white" stroke-width="2"/>
<line y1="-1" x2="311.173" y2="-1" transform="matrix(0.0871559 -0.996195 -0.996195 -0.0871559 94.0801 318.22)" stroke="white" stroke-width="2"/>
<line y1="-1" x2="243.004" y2="-1" transform="matrix(0.0871557 -0.996195 -0.996195 -0.0871557 47.6846 314.165)" stroke="white" stroke-width="2"/>
<path fill-rule="evenodd" clip-rule="evenodd" d="M178.076 189.364C174.183 189.024 171.314 185.46 171.669 181.404C172.024 177.348 175.468 174.336 179.361 174.677C183.255 175.017 186.124 178.581 185.769 182.637C185.414 186.693 181.97 189.705 178.076 189.364ZM177.629 194.473C171.027 193.895 166.163 187.852 166.765 180.975C167.366 174.097 173.206 168.99 179.808 169.568C186.411 170.146 191.275 176.189 190.673 183.066C190.072 189.944 184.232 195.051 177.629 194.473Z" fill="white"/>
<path fill-rule="evenodd" clip-rule="evenodd" d="M126.319 230.214C122.426 229.873 119.545 226.441 119.886 222.547C120.227 218.653 123.659 215.773 127.553 216.114C131.446 216.454 134.327 219.887 133.986 223.781C133.645 227.674 130.213 230.554 126.319 230.214ZM125.89 235.118C119.288 234.541 114.404 228.72 114.982 222.118C115.559 215.516 121.38 210.632 127.982 211.21C134.584 211.787 139.468 217.608 138.89 224.21C138.313 230.812 132.492 235.696 125.89 235.118Z" fill="white"/>
<path fill-rule="evenodd" clip-rule="evenodd" d="M86.6945 132.388C82.8009 132.048 79.9207 128.615 80.2613 124.721C80.602 120.828 84.0345 117.948 87.9281 118.288C91.8217 118.629 94.702 122.061 94.3613 125.955C94.0207 129.849 90.5881 132.729 86.6945 132.388ZM86.2654 137.292C79.6632 136.715 74.7794 130.894 75.357 124.292C75.9346 117.69 81.755 112.806 88.3572 113.384C94.9594 113.961 99.8433 119.782 99.2657 126.384C98.688 132.986 92.8676 137.87 86.2654 137.292Z" fill="white"/>
<path fill-rule="evenodd" clip-rule="evenodd" d="M221.954 238.581C218.06 238.24 215.18 234.808 215.521 230.914C215.861 227.021 219.294 224.14 223.188 224.481C227.081 224.822 229.961 228.254 229.621 232.148C229.28 236.041 225.848 238.922 221.954 238.581ZM221.525 243.485C214.923 242.908 210.039 237.087 210.617 230.485C211.194 223.883 217.015 218.999 223.617 219.577C230.219 220.154 235.103 225.975 234.525 232.577C233.948 239.179 228.127 244.063 221.525 243.485Z" fill="white"/>
<path fill-rule="evenodd" clip-rule="evenodd" d="M230.147 144.939C226.253 144.598 223.373 141.165 223.713 137.272C224.054 133.378 227.487 130.498 231.38 130.839C235.274 131.179 238.154 134.612 237.813 138.505C237.473 142.399 234.04 145.279 230.147 144.939ZM229.718 149.843C223.115 149.265 218.232 143.445 218.809 136.843C219.387 130.241 225.207 125.357 231.809 125.934C238.412 126.512 243.295 132.332 242.718 138.934C242.14 145.537 236.32 150.421 229.718 149.843Z" fill="white"/>
<path fill-rule="evenodd" clip-rule="evenodd" d="M238.357 51.0919C234.464 50.7512 231.595 47.1872 231.95 43.1314C232.305 39.0755 235.749 36.0638 239.642 36.4044C243.536 36.7451 246.405 40.3091 246.05 44.3649C245.695 48.4208 242.251 51.4325 238.357 51.0919ZM237.91 56.2006C231.308 55.623 226.444 49.5796 227.045 42.7023C227.647 35.825 233.487 30.7181 240.089 31.2957C246.691 31.8733 251.556 37.9167 250.954 44.794C250.352 51.6713 244.512 56.7782 237.91 56.2006Z" fill="white"/>
<path d="M222.172 185.838L213.891 193.06L217.826 197.99L226.11 190.737L233.008 199.318L237.808 195.058L230.961 186.575L239.185 179.317L235.187 174.413L226.939 181.606L220.095 173.093L215.271 177.288L222.172 185.838Z" fill="white"/>
<path d="M177.585 133.251L169.332 140.158L173.283 144.906L181.539 137.969L188.465 146.234L193.248 142.16L186.374 133.99L194.57 127.048L190.557 122.325L182.336 129.204L175.464 121.005L170.656 125.016L177.585 133.251Z" fill="white"/>
<path d="M134.86 82.3349L126.552 89.8722L130.471 94.9842L138.782 87.4145L145.653 96.3125L150.469 91.8667L143.649 83.0712L151.901 75.4962L147.919 70.4114L139.643 77.919L132.827 69.091L127.987 73.4693L134.86 82.3349Z" fill="white"/>
<path d="M170.389 226.981L162.135 233.887L166.087 238.635L174.343 231.699L181.269 239.963L186.052 235.889L179.178 227.719L187.374 220.778L183.36 216.054L175.14 222.934L168.268 214.734L163.46 218.746L170.389 226.981Z" fill="white"/>
<path d="M126.755 174.98L118.501 181.886L122.453 186.634L130.709 179.698L137.635 187.962L142.418 183.888L135.544 175.719L143.74 168.777L139.726 164.054L131.506 170.933L124.634 162.733L119.826 166.745L126.755 174.98Z" fill="white"/>
<path d="M26.9367 214.43L18.6833 221.337L22.6345 226.084L30.8905 219.148L37.8166 227.413L42.5998 223.339L35.7257 215.169L43.9219 208.227L39.9083 203.504L31.6875 210.383L24.8159 202.184L20.008 206.195L26.9367 214.43Z" fill="white"/>
</g>
</svg>
