<svg width="274" height="280" viewBox="0 0 274 280" fill="none" xmlns="http://www.w3.org/2000/svg">
<g opacity="0.5">
<line x1="369.665" y1="232.233" x2="73.5225" y2="206.33" stroke="#C4CCD4" stroke-width="2"/>
<line x1="373.81" y1="184.855" x2="8.32115" y2="152.879" stroke="#C4CCD4" stroke-width="2"/>
<line x1="377.956" y1="137.477" x2="12.4664" y2="105.501" stroke="#C4CCD4" stroke-width="2"/>
<line x1="382.101" y1="90.0987" x2="16.6114" y2="58.1226" stroke="#C4CCD4" stroke-width="2"/>
<line x1="386.246" y1="42.7204" x2="20.7565" y2="10.7443" stroke="#C4CCD4" stroke-width="2"/>
<line x1="264.331" y1="-41.2427" x2="237.21" y2="268.746" stroke="#C4CCD4" stroke-width="2"/>
<line x1="216.952" y1="-45.3878" x2="189.832" y2="264.601" stroke="#C4CCD4" stroke-width="2"/>
<line x1="169.574" y1="-49.5328" x2="142.454" y2="260.456" stroke="#C4CCD4" stroke-width="2"/>
<line x1="122.196" y1="-53.6779" x2="95.0757" y2="256.311" stroke="#C4CCD4" stroke-width="2"/>
<line x1="75.8016" y1="-57.7409" x2="54.6224" y2="184.339" stroke="#C4CCD4" stroke-width="2"/>
<path fill-rule="evenodd" clip-rule="evenodd" d="M181.545 87.7187C177.651 87.3781 174.207 90.3898 173.852 94.4457C173.497 98.5015 176.366 102.066 180.26 102.406C184.153 102.747 187.597 99.7351 187.952 95.6793C188.307 91.6234 185.438 88.0594 181.545 87.7187ZM181.992 82.61C175.389 82.0324 169.55 87.1393 168.948 94.0166C168.346 100.894 173.211 106.937 179.813 107.515C186.415 108.093 192.255 102.986 192.857 96.1083C193.458 89.231 188.594 83.1876 181.992 82.61Z" fill="#C4CCD4"/>
<path fill-rule="evenodd" clip-rule="evenodd" d="M137.667 38.5022C133.774 38.1615 130.341 41.0418 130.001 44.9354C129.66 48.829 132.54 52.2615 136.434 52.6022C140.327 52.9428 143.76 50.0626 144.101 46.169C144.441 42.2754 141.561 38.8428 137.667 38.5022ZM138.096 33.5978C131.494 33.0202 125.674 37.9041 125.096 44.5063C124.519 51.1085 129.402 56.9289 136.005 57.5065C142.607 58.0841 148.427 53.2002 149.005 46.598C149.582 39.9958 144.699 34.1755 138.096 33.5978Z" fill="#C4CCD4"/>
<path fill-rule="evenodd" clip-rule="evenodd" d="M81.6573 127.961C77.7637 127.62 74.3312 130.501 73.9905 134.394C73.6499 138.288 76.5301 141.72 80.4237 142.061C84.3173 142.402 87.7499 139.521 88.0905 135.628C88.4311 131.734 85.5509 128.302 81.6573 127.961ZM82.0864 123.057C75.4842 122.479 69.6638 127.363 69.0862 133.965C68.5086 140.567 73.3924 146.388 79.9946 146.965C86.5968 147.543 92.4172 142.659 92.9948 136.057C93.5725 129.455 88.6886 123.634 82.0864 123.057Z" fill="#C4CCD4"/>
<path fill-rule="evenodd" clip-rule="evenodd" d="M233.302 46.869C229.408 46.5284 225.976 49.4086 225.635 53.3022C225.295 57.1958 228.175 60.6284 232.068 60.969C235.962 61.3097 239.395 58.4294 239.735 54.5358C240.076 50.6422 237.196 47.2097 233.302 46.869ZM233.731 41.9647C227.129 41.3871 221.309 46.271 220.731 52.8731C220.153 59.4753 225.037 65.2957 231.639 65.8734C238.242 66.451 244.062 61.5671 244.64 54.9649C245.217 48.3627 240.333 42.5423 233.731 41.9647Z" fill="#C4CCD4"/>
<path fill-rule="evenodd" clip-rule="evenodd" d="M225.109 140.511C221.216 140.171 217.783 143.051 217.443 146.945C217.102 150.838 219.982 154.271 223.876 154.611C227.769 154.952 231.202 152.072 231.543 148.178C231.883 144.285 229.003 140.852 225.109 140.511ZM225.539 135.607C218.936 135.029 213.116 139.913 212.538 146.516C211.961 153.118 216.845 158.938 223.447 159.516C230.049 160.093 235.869 155.209 236.447 148.607C237.025 142.005 232.141 136.185 225.539 135.607Z" fill="#C4CCD4"/>
<path fill-rule="evenodd" clip-rule="evenodd" d="M216.899 234.358C213.005 234.017 209.561 237.029 209.206 241.085C208.852 245.141 211.72 248.705 215.614 249.046C219.508 249.386 222.952 246.374 223.306 242.319C223.661 238.263 220.793 234.699 216.899 234.358ZM217.346 229.249C210.744 228.672 204.904 233.779 204.302 240.656C203.7 247.533 208.565 253.577 215.167 254.154C221.769 254.732 227.609 249.625 228.211 242.748C228.812 235.87 223.948 229.827 217.346 229.249Z" fill="#C4CCD4"/>
<path d="M224.358 98.8486L217.457 90.2985L222.188 86.1268L229.086 94.7081L237.37 87.455L241.357 92.4837L233.141 99.6485L239.98 108.225L235.191 112.36L228.317 103.844L220.099 111.039L216.077 106.07L224.358 98.8486Z" fill="#C4CCD4"/>
<path d="M171.317 142.894L164.388 134.659L169.104 130.67L176.03 138.934L184.286 131.998L188.289 136.841L180.101 143.693L186.967 151.952L182.194 155.907L175.293 147.704L167.102 154.586L163.064 149.8L171.317 142.894Z" fill="#C4CCD4"/>
<path d="M120.4 185.618L113.526 176.752L118.274 172.398L125.144 181.296L133.456 173.727L137.426 178.941L129.183 186.419L135.994 195.312L131.19 199.628L124.343 190.797L116.097 198.307L112.091 193.155L120.4 185.618Z" fill="#C4CCD4"/>
<path d="M180.506 49.3389L173.577 41.1042L178.293 37.1146L185.219 45.3792L193.475 38.4428L197.478 43.2857L189.29 50.1376L196.156 58.397L191.383 62.3515L184.482 54.1493L176.291 61.0311L172.253 56.2454L180.506 49.3389Z" fill="#C4CCD4"/>
<path d="M128.505 92.9728L121.576 84.7381L126.292 80.7484L133.218 89.013L141.474 82.0766L145.477 86.9196L137.289 93.7714L144.155 102.031L139.382 105.985L132.481 97.7831L124.29 104.665L120.252 99.8792L128.505 92.9728Z" fill="#C4CCD4"/>
<path d="M37.0537 36.7885L30.1251 28.5538L34.8407 24.5642L41.7668 32.8288L50.0227 25.8924L54.0259 30.7353L45.8375 37.5872L52.7038 45.8466L47.931 49.8011L41.0296 41.5989L32.8387 48.4807L28.8004 43.695L37.0537 36.7885Z" fill="#C4CCD4"/>
</g>
</svg>
