<svg width="284" height="342" viewBox="0 0 284 342" fill="none" xmlns="http://www.w3.org/2000/svg">
<g style="mix-blend-mode:darken">
<line y1="-1" x2="297.274" y2="-1" transform="matrix(-0.996193 -0.0871737 -0.0871737 0.996193 388.347 80.7083)" stroke="#E2E5E9" stroke-width="2"/>
<line y1="-1" x2="366.885" y2="-1" transform="matrix(-0.996195 -0.0871558 -0.0871558 0.996195 384.202 128.086)" stroke="#E2E5E9" stroke-width="2"/>
<line y1="-1" x2="366.885" y2="-1" transform="matrix(-0.996195 -0.0871558 -0.0871558 0.996195 380.057 175.465)" stroke="#E2E5E9" stroke-width="2"/>
<line y1="-1" x2="366.885" y2="-1" transform="matrix(-0.996195 -0.0871558 -0.0871558 0.996195 375.912 222.843)" stroke="#E2E5E9" stroke-width="2"/>
<line y1="-1" x2="366.885" y2="-1" transform="matrix(-0.996195 -0.0871558 -0.0871558 0.996195 371.767 270.221)" stroke="#E2E5E9" stroke-width="2"/>
<line y1="-1" x2="353.976" y2="-1" transform="matrix(-0.996195 -0.0871558 -0.0871558 0.996195 367.622 317.599)" stroke="#E2E5E9" stroke-width="2"/>
<line y1="-1" x2="311.173" y2="-1" transform="matrix(0.0871559 -0.996195 -0.996195 -0.0871559 283.594 334.8)" stroke="#E2E5E9" stroke-width="2"/>
<line y1="-1" x2="311.173" y2="-1" transform="matrix(0.0871559 -0.996195 -0.996195 -0.0871559 236.215 330.655)" stroke="#E2E5E9" stroke-width="2"/>
<line y1="-1" x2="311.173" y2="-1" transform="matrix(0.0871559 -0.996195 -0.996195 -0.0871559 188.837 326.51)" stroke="#E2E5E9" stroke-width="2"/>
<line y1="-1" x2="311.173" y2="-1" transform="matrix(0.0871559 -0.996195 -0.996195 -0.0871559 141.459 322.365)" stroke="#E2E5E9" stroke-width="2"/>
<line y1="-1" x2="311.173" y2="-1" transform="matrix(0.0871559 -0.996195 -0.996195 -0.0871559 94.0806 318.22)" stroke="#E2E5E9" stroke-width="2"/>
<line y1="-1" x2="243.004" y2="-1" transform="matrix(0.0871557 -0.996195 -0.996195 -0.0871557 47.6851 314.165)" stroke="#E2E5E9" stroke-width="2"/>
<path fill-rule="evenodd" clip-rule="evenodd" d="M178.077 189.364C174.183 189.024 171.315 185.46 171.669 181.404C172.024 177.348 175.468 174.336 179.362 174.677C183.255 175.017 186.124 178.582 185.769 182.637C185.415 186.693 181.971 189.705 178.077 189.364ZM177.63 194.473C171.028 193.895 166.163 187.852 166.765 180.975C167.367 174.097 173.207 168.991 179.809 169.568C186.411 170.146 191.275 176.189 190.674 183.066C190.072 189.944 184.232 195.051 177.63 194.473Z" fill="#E2E5E9"/>
<path fill-rule="evenodd" clip-rule="evenodd" d="M126.32 230.214C122.426 229.873 119.546 226.441 119.887 222.547C120.227 218.654 123.66 215.773 127.553 216.114C131.447 216.455 134.327 219.887 133.987 223.781C133.646 227.674 130.213 230.555 126.32 230.214ZM125.891 235.118C119.288 234.541 114.405 228.72 114.982 222.118C115.56 215.516 121.38 210.632 127.982 211.21C134.585 211.787 139.469 217.608 138.891 224.21C138.313 230.812 132.493 235.696 125.891 235.118Z" fill="#E2E5E9"/>
<path fill-rule="evenodd" clip-rule="evenodd" d="M86.695 132.388C82.8014 132.048 79.9212 128.615 80.2618 124.721C80.6025 120.828 84.035 117.948 87.9286 118.288C91.8222 118.629 94.7024 122.061 94.3618 125.955C94.0212 129.849 90.5886 132.729 86.695 132.388ZM86.2659 137.292C79.6637 136.715 74.7799 130.894 75.3575 124.292C75.9351 117.69 81.7555 112.806 88.3577 113.384C94.9599 113.961 99.8438 119.782 99.2661 126.384C98.6885 132.986 92.8681 137.87 86.2659 137.292Z" fill="#E2E5E9"/>
<path fill-rule="evenodd" clip-rule="evenodd" d="M221.955 238.581C218.061 238.24 215.181 234.808 215.521 230.914C215.862 227.021 219.295 224.14 223.188 224.481C227.082 224.822 229.962 228.254 229.621 232.148C229.281 236.041 225.848 238.922 221.955 238.581ZM221.525 243.485C214.923 242.908 210.039 237.087 210.617 230.485C211.195 223.883 217.015 218.999 223.617 219.577C230.219 220.154 235.103 225.975 234.526 232.577C233.948 239.179 228.128 244.063 221.525 243.485Z" fill="#E2E5E9"/>
<path fill-rule="evenodd" clip-rule="evenodd" d="M230.147 144.939C226.254 144.598 223.373 141.166 223.714 137.272C224.055 133.378 227.487 130.498 231.381 130.839C235.274 131.179 238.155 134.612 237.814 138.505C237.473 142.399 234.041 145.279 230.147 144.939ZM229.718 149.843C223.116 149.265 218.232 143.445 218.81 136.843C219.387 130.241 225.208 125.357 231.81 125.934C238.412 126.512 243.296 132.332 242.718 138.935C242.141 145.537 236.32 150.421 229.718 149.843Z" fill="#E2E5E9"/>
<path fill-rule="evenodd" clip-rule="evenodd" d="M238.358 51.0921C234.464 50.7515 231.595 47.1874 231.95 43.1316C232.305 39.0757 235.749 36.064 239.643 36.4046C243.536 36.7453 246.405 40.3093 246.05 44.3652C245.695 48.421 242.251 51.4328 238.358 51.0921ZM237.911 56.2008C231.309 55.6232 226.444 49.5798 227.046 42.7025C227.648 35.8252 233.487 30.7183 240.09 31.2959C246.692 31.8735 251.556 37.9169 250.954 44.7942C250.353 51.6715 244.513 56.7784 237.911 56.2008Z" fill="#E2E5E9"/>
<path d="M222.172 185.838L213.891 193.06L217.826 197.99L226.11 190.737L233.008 199.318L237.808 195.058L230.961 186.576L239.185 179.317L235.187 174.413L226.939 181.607L220.095 173.093L215.271 177.288L222.172 185.838Z" fill="#E2E5E9"/>
<path d="M177.586 133.251L169.332 140.158L173.283 144.906L181.539 137.969L188.465 146.234L193.249 142.16L186.375 133.99L194.571 127.048L190.557 122.325L182.336 129.204L175.465 121.005L170.657 125.016L177.586 133.251Z" fill="#E2E5E9"/>
<path d="M134.861 82.335L126.552 89.8724L130.471 94.9843L138.783 87.4146L145.653 96.3126L150.469 91.8669L143.65 83.0713L151.902 75.4963L147.92 70.4115L139.644 77.9191L132.827 69.0911L127.987 73.4694L134.861 82.335Z" fill="#E2E5E9"/>
<path d="M170.389 226.981L162.136 233.887L166.087 238.635L174.343 231.699L181.269 239.963L186.052 235.889L179.178 227.719L187.375 220.778L183.361 216.055L175.14 222.934L168.269 214.734L163.461 218.746L170.389 226.981Z" fill="#E2E5E9"/>
<path d="M126.755 174.98L118.502 181.886L122.453 186.634L130.709 179.698L137.635 187.963L142.418 183.888L135.544 175.719L143.741 168.777L139.727 164.054L131.506 170.933L124.635 162.733L119.827 166.745L126.755 174.98Z" fill="#E2E5E9"/>
<path d="M26.9372 214.43L18.6838 221.337L22.635 226.085L30.891 219.148L37.817 227.413L42.6003 223.339L35.7262 215.169L43.9224 208.228L39.9088 203.504L31.6879 210.383L24.8164 202.184L20.0085 206.196L26.9372 214.43Z" fill="#E2E5E9"/>
</g>
</svg>
