<svg width="83" height="88" viewBox="0 0 83 88" fill="none" xmlns="http://www.w3.org/2000/svg">
<path d="M41.6463 39.5298C40.6843 39.4456 39.8404 39.6603 39.1377 40.1837C38.4602 40.6934 37.9945 41.4379 37.7499 42.4021L45.0246 43.0385C45.0669 42.0967 44.7766 41.2941 44.1516 40.6544C43.5042 39.9968 42.656 39.6181 41.6463 39.5298Z" fill="#2F3C4A"/>
<path d="M79.9539 61.0786L80.0228 60.2914L54.2473 58.0363L56.434 33.043L82.2094 35.2981L82.3472 33.7235L56.5717 31.4685L58.8272 5.6879L57.253 5.55017L54.9975 31.3308L30.0092 29.1446L32.2647 3.36397L4.91504 0.971191L2.52247 28.3183L28.2979 30.5734L26.1113 55.5667L0.33584 53.3117L0.198088 54.8862L25.9735 57.1412L23.718 82.9218L25.2922 83.0596L27.5477 57.279L52.5361 59.4652L50.2806 85.2457L77.6382 87.6392L79.9625 61.0714L79.9539 61.0786ZM38.3992 47.8917C39.0207 48.5711 39.8436 48.9636 40.8374 49.0505C42.2764 49.1764 43.3643 48.6466 44.0763 47.4669L44.113 47.414L48.605 47.807L48.5621 47.9314C47.9667 49.4258 46.9563 50.6275 45.5661 51.4995C44.176 52.3715 42.5103 52.7306 40.618 52.565C39.0836 52.4308 37.7222 51.9671 36.5656 51.1768C35.4083 50.3945 34.5319 49.3322 33.9653 48.0246C33.3908 46.7163 33.1755 45.2391 33.3182 43.6089C33.4608 41.9788 33.9321 40.5296 34.7084 39.3475C35.4855 38.1575 36.5244 37.2708 37.792 36.7006C39.059 36.1383 40.4961 35.9195 42.0624 36.0565C43.6286 36.1936 44.9192 36.643 46.0547 37.3994C47.1982 38.1565 48.0622 39.1776 48.617 40.4361C49.1725 41.6867 49.3847 43.1075 49.249 44.6582C49.1934 45.2943 49.0938 45.9747 48.9854 46.3899L48.9618 46.476L37.4416 45.4681C37.4587 46.4632 37.7334 47.1683 38.3992 47.8917ZM10.375 6.41689L18.5163 7.12916C19.7645 7.23837 20.8436 7.54111 21.7542 8.02944C22.6648 8.51777 23.3521 9.17886 23.8079 10.012C24.2631 10.8531 24.4406 11.8462 24.339 13.0072C24.2374 14.1682 23.9023 15.0684 23.3159 15.8184C22.7223 16.5598 21.9626 17.0943 21.0207 17.4205L23.686 24.4086L18.9236 23.992L16.63 17.7015L13.7757 17.4517L13.247 23.4953L8.914 23.1162L10.375 6.41689ZM69.8408 81.989L65.1977 76.4545L59.7119 81.1029L56.7592 77.5833L62.245 72.9349L57.602 67.4005L61.1729 64.4035L65.8159 69.938L71.2976 65.3374L74.2503 68.857L68.7686 73.4576L73.4116 78.9921L69.8408 81.989Z" fill="#2F3C4A"/>
<path d="M19.3249 14.0029C19.725 13.7334 19.9534 13.3207 20.0021 12.764C20.0508 12.2074 19.8989 11.7454 19.551 11.4185C19.1951 11.0909 18.7234 10.8973 18.1191 10.8445L14.3824 10.5175L14.0784 13.9926L17.8151 14.3195C18.4193 14.3724 18.9168 14.2717 19.3249 14.0029Z" fill="#2F3C4A"/>
<path d="M20.839 64.1841L17.8863 60.6645L12.4046 65.2651L7.76155 59.7306L4.19067 62.7276L8.83372 68.2621L3.34786 72.9104L6.30055 76.43L11.7864 71.7817L16.4295 77.3161L20.0003 74.3192L15.3573 68.7847L20.839 64.1841Z" fill="#2F3C4A"/>
<path d="M61.3818 24.1969L64.3424 27.7172L69.8283 23.0689L74.4713 28.6033L78.0422 25.6064L73.3992 20.0719L78.8809 15.4713L75.9282 11.9517L70.4465 16.5523L65.8034 11.0179L62.2326 14.0148L66.8756 19.5493L61.3818 24.1969Z" fill="#2F3C4A"/>
<path d="M39.64 62.9203C35.2513 62.5363 31.3778 65.7872 30.9938 70.1768C30.6097 74.5663 33.8599 78.4405 38.2485 78.8244C42.6372 79.2084 46.5107 75.9575 46.8947 71.5679C47.2788 67.1784 44.0286 63.3042 39.64 62.9203ZM38.5964 74.8484C36.4021 74.6564 34.777 72.7193 34.969 70.5246C35.161 68.3298 37.0978 66.7043 39.2921 66.8963C41.4864 67.0883 43.1115 69.0254 42.9195 71.2201C42.7275 73.4149 40.7907 75.0404 38.5964 74.8484Z" fill="#2F3C4A"/>
<path d="M59.8807 45.9329C59.4967 50.3224 62.7468 54.1965 67.1355 54.5805C71.5241 54.9645 75.3976 51.7136 75.7817 47.324C76.1657 42.9345 72.9156 39.0603 68.5269 38.6764C64.1382 38.2924 60.2647 41.5433 59.8807 45.9329ZM71.8064 46.9762C71.6144 49.171 69.6777 50.7964 67.4833 50.6045C65.289 50.4125 63.6639 48.4754 63.8559 46.2806C64.048 44.0859 65.9847 42.4604 68.179 42.6524C70.3734 42.8444 71.9984 44.7815 71.8064 46.9762Z" fill="#2F3C4A"/>
<path d="M42.7159 25.4725C47.1046 25.8565 50.9781 22.6056 51.3621 18.2161C51.7462 13.8265 48.496 9.95237 44.1074 9.56842C39.7187 9.18446 35.8459 12.4274 35.4612 16.8249C35.0764 21.2224 38.3193 25.0879 42.7159 25.4725ZM43.7595 13.5444C45.9459 13.7357 47.5789 15.6735 47.3869 17.8683C47.1949 20.063 45.2502 21.6878 43.0638 21.4965C40.8774 21.3052 39.2451 19.3595 39.4364 17.1727C39.6277 14.9859 41.5652 13.3525 43.7595 13.5444Z" fill="#2F3C4A"/>
<path d="M22.3808 42.5318C22.7648 38.1423 19.5147 34.2682 15.126 33.8842C10.7374 33.5003 6.86388 36.7512 6.47984 41.1407C6.09581 45.5302 9.33799 49.4037 13.7346 49.7883C18.1312 50.173 21.9961 46.9293 22.3808 42.5318ZM10.4551 41.4885C10.6464 39.3017 12.5838 37.6683 14.7782 37.8602C16.9725 38.0522 18.5969 39.9972 18.4056 42.1841C18.2142 44.3709 16.2688 46.0036 14.0825 45.8123C11.8961 45.621 10.2631 43.6833 10.4551 41.4885Z" fill="#2F3C4A"/>
</svg>
