<svg width="127" height="23" viewBox="0 0 127 23" fill="none" xmlns="http://www.w3.org/2000/svg">
<path d="M39.495 5.96119C38.665 4.45119 37.475 3.27119 35.965 2.45119C34.455 1.63119 32.735 1.22119 30.835 1.22119C28.935 1.22119 27.095 1.65119 25.575 2.49119C24.055 3.34119 22.855 4.56119 22.015 6.13119C21.175 7.69119 20.745 9.54119 20.745 11.6012C20.745 13.6612 21.175 15.4712 22.035 17.0412C22.895 18.6112 24.105 19.8412 25.635 20.6912C27.165 21.5412 28.915 21.9812 30.845 21.9812C33.225 21.9812 35.265 21.3512 36.905 20.1112C38.545 18.8712 39.665 17.2612 40.245 15.3312L40.295 15.1712H34.635L34.605 15.2412C33.845 16.7912 32.545 17.5712 30.735 17.5712C29.485 17.5712 28.415 17.1712 27.555 16.3812C26.655 15.5512 26.225 14.7012 26.105 13.4612H40.595L40.615 13.3612C40.705 12.8212 40.765 11.9712 40.765 11.1712C40.765 9.22119 40.345 7.47119 39.515 5.96119H39.495ZM27.635 6.69119C28.455 5.96119 29.485 5.59119 30.685 5.59119C31.965 5.59119 33.055 5.97119 33.935 6.72119C34.785 7.45119 35.235 8.42119 35.285 9.60119H26.135C26.335 8.36119 26.845 7.38119 27.635 6.68119V6.69119Z" fill="#2F3C4A"/>
<path d="M66.985 21.6812V1.60119H72.195V9.14119H78.815V1.60119H84.025V21.6812H78.815V13.5912H72.195V21.6812H66.985Z" fill="#2F3C4A"/>
<path d="M88.285 1.60119H98.165C99.665 1.60119 100.985 1.84119 102.125 2.33119C103.265 2.82119 104.155 3.54119 104.785 4.49119C105.415 5.44119 105.735 6.61119 105.735 8.01119C105.735 9.41119 105.425 10.5212 104.795 11.4712C104.175 12.4212 103.315 13.1412 102.235 13.6312L106.145 21.6912H100.415L97.025 14.4212H93.495V21.6912H88.285V1.60119ZM98.085 6.08119H93.495V10.2612H98.085C98.805 10.2612 99.395 10.0812 99.845 9.72119C100.295 9.36119 100.525 8.84119 100.525 8.17119C100.525 7.50119 100.295 6.96119 99.845 6.61119C99.395 6.26119 98.805 6.08119 98.085 6.08119Z" fill="#2F3C4A"/>
<path d="M113.755 21.6812V14.9812L106.675 1.60119H112.375L116.365 9.63119L120.325 1.60119H126.055L118.975 14.9812V21.6812H113.755Z" fill="#2F3C4A"/>
<path d="M0.915039 21.6812V1.59119H10.705C12.205 1.59119 13.525 1.83119 14.665 2.32119C15.805 2.81119 16.695 3.53119 17.325 4.48119C17.955 5.43119 18.275 6.60119 18.275 8.00119C18.275 9.40119 17.965 10.5112 17.335 11.4612C16.715 12.4112 15.855 13.1312 14.765 13.6212L18.675 21.6812H12.945L9.55504 14.4012H6.11504V21.6812H0.915039ZM10.625 6.07119H6.12504V10.2512H10.625C11.345 10.2512 11.935 10.0712 12.385 9.71119C12.835 9.35119 13.065 8.83119 13.065 8.16119C13.065 7.49119 12.835 6.95119 12.385 6.60119C11.935 6.25119 11.345 6.07119 10.625 6.07119Z" fill="#2F3C4A"/>
<path d="M57.145 11.6112L63.695 5.06119L59.665 1.03119L53.115 7.58119L46.505 0.971191L42.415 5.06119L49.025 11.6712L48.935 11.7612L42.475 18.2812L46.505 22.3112L53.055 15.7012L59.665 22.3112L63.755 18.2212L57.145 11.6112Z" fill="#2F3C4A"/>
</svg>
