<svg width="66" height="47" viewBox="0 0 66 47" fill="none" xmlns="http://www.w3.org/2000/svg">
<g opacity="0.5">
<path d="M-1.83756e-08 8.24988L18.94 8.24988C17.88 10.3199 17.18 12.6099 16.96 15.0399L-3.34992e-08 15.0399L-1.83756e-08 8.24988Z" fill="white"/>
<path d="M38.72 8.24988L38.72 15.0399L25.02 15.0399C25.48 12.2899 26.98 9.87988 29.11 8.24988L38.72 8.24988Z" fill="white"/>
<path d="M20.61 28.0999L-6.25883e-08 28.0999L-4.74647e-08 21.3099L17.41 21.3099C18.02 23.7999 19.12 26.0999 20.61 28.0999Z" fill="white"/>
<path d="M38.72 21.3099L38.72 27.2399C37.77 27.5199 36.76 27.6699 35.71 27.6699C31.33 27.6699 27.54 25.0599 25.84 21.3099L38.72 21.3099Z" fill="white"/>
<path d="M28.45 34.3799L-7.6576e-08 34.3799L-9.16774e-08 41.1599L28.45 41.1599L28.45 34.3799Z" fill="white"/>
<path d="M54.1 30.5899L52.69 32.0099L48.47 27.7899C51 24.8499 52.54 21.0199 52.54 16.8299C52.54 7.53988 45 -0.00012197 35.71 -0.000121991C30.78 -0.000122002 26.35 2.11988 23.27 5.48988C22.5 6.33988 21.81 7.25988 21.22 8.24988C20.02 10.2799 19.23 12.5799 18.97 15.0399C18.9 15.6299 18.87 16.2199 18.87 16.8299C18.87 17.1599 18.88 17.4799 18.9 17.8099C18.91 18.0599 18.93 18.3099 18.96 18.5499C19.05 19.4999 19.23 20.4199 19.48 21.3099C20.18 23.8699 21.47 26.1799 23.2 28.0999C24.15 29.1499 25.23 30.0899 26.42 30.8699C27.05 31.2899 27.71 31.6699 28.39 31.9999C29.17 32.3699 29.98 32.6899 30.82 32.9399C32.37 33.4199 34.01 33.6699 35.71 33.6699C39.74 33.6699 43.43 32.2499 46.33 29.8899L50.56 34.1299L49.15 35.5399L60.42 46.8099L65.36 41.8599L54.1 30.5899ZM41.49 28.2899C39.75 29.1699 37.79 29.6699 35.71 29.6699C33.49 29.6699 31.39 29.0999 29.57 28.0999C26.87 26.6299 24.76 24.2199 23.68 21.3099C23.35 20.4299 23.11 19.5099 22.99 18.5499C22.95 18.3099 22.93 18.0599 22.91 17.8099C22.88 17.4899 22.87 17.1599 22.87 16.8299C22.87 16.2199 22.91 15.6299 23 15.0399C23.36 12.4499 24.5 10.1099 26.18 8.24988C27.18 7.12988 28.38 6.19988 29.72 5.48988C31.5 4.53988 33.55 3.99988 35.71 3.99988C42.78 3.99988 48.54 9.75988 48.54 16.8299C48.54 21.8299 45.67 26.1699 41.49 28.2899Z" fill="white"/>
</g>
</svg>
