<svg width="87" height="18" viewBox="0 0 87 18" fill="none" xmlns="http://www.w3.org/2000/svg">
<path d="M6.80703 3.16231C5.78273 3.16231 5.48659 3.62084 5.48659 4.63218V6.3099H8.21874L7.94489 9.02037H5.48765V17.2461H2.20886V9.02037H0V6.3099H2.20886V4.67825C2.20886 1.9442 3.30108 0.500042 6.34848 0.500042C6.98705 0.498543 7.62518 0.536788 8.25908 0.614675V3.16552L6.80703 3.16231Z" fill="#8A98A8"/>
<path d="M8.44589 11.433C8.44589 8.37757 9.8799 6.07634 12.8848 6.07634C14.5237 6.07634 15.5246 6.92698 16.0034 7.98332V6.3099H19.1442V17.2461H16.0034V15.5919C15.548 16.6494 14.5237 17.4764 12.8848 17.4764C9.8799 17.4764 8.44589 15.1784 8.44589 12.1198V11.433ZM11.7236 12.169C11.7236 13.7996 12.3148 14.8795 13.8401 14.8795C15.1839 14.8795 15.8664 13.8917 15.8664 12.3297V11.2316C15.8664 9.6696 15.1839 8.68183 13.8401 8.68183C12.3148 8.68183 11.7236 9.76174 11.7236 11.3923V12.169Z" fill="#8A98A8"/>
<path d="M25.9735 6.07956C27.2472 6.07956 28.4541 6.35596 29.1143 6.81449L28.3861 9.15858C27.7032 8.83032 26.957 8.65762 26.2006 8.65291C24.4248 8.65291 23.6532 9.68675 23.6532 11.4566V12.0994C23.6532 13.8692 24.427 14.9031 26.2006 14.9031C26.957 14.8983 27.7032 14.7257 28.3861 14.3974L29.1143 16.7404C28.4541 17.2 27.2483 17.4764 25.9735 17.4764C22.1258 17.4764 20.3733 15.3852 20.3733 12.0308V11.5252C20.3733 8.1708 22.1258 6.07956 25.9735 6.07956Z" fill="#8A98A8"/>
<path d="M29.5463 12.1958V11.2316C29.5463 8.1301 31.2987 6.0892 34.8737 6.0892C38.2427 6.0892 39.7223 8.15688 39.7223 11.1898V12.9361H32.823C32.892 14.4296 33.5522 15.0959 35.3704 15.0959C36.6006 15.0959 37.8977 14.8431 38.8541 14.4296L39.4538 16.6954C38.5887 17.1561 36.8129 17.5 35.243 17.5C31.0939 17.4989 29.5463 15.4098 29.5463 12.1958ZM32.824 10.7709H36.7853V10.4956C36.7853 9.30107 36.3077 8.35294 34.8747 8.35294C33.394 8.35401 32.824 9.29678 32.824 10.7667V10.7709Z" fill="#8A98A8"/>
<path d="M51.8727 12.123C51.8727 15.1784 50.4164 17.4796 47.4146 17.4796C45.7757 17.4796 44.6379 16.6526 44.1825 15.5952V17.2493H41.0873V0.81823L44.3651 0.518256V7.82477C44.8427 6.86056 45.8904 6.07849 47.4157 6.07849C50.4206 6.07849 51.8737 8.3765 51.8737 11.4352L51.8727 12.123ZM48.5949 11.3645C48.5949 9.82495 48.0037 8.67648 46.4328 8.67648C45.089 8.67648 44.3608 9.64068 44.3608 11.2038V12.3522C44.3608 13.9142 45.089 14.8795 46.4328 14.8795C48.0037 14.8795 48.5949 13.731 48.5949 12.1915V11.3645Z" fill="#8A98A8"/>
<path d="M52.9691 12.0533V11.5027C52.9691 8.354 54.7449 6.07956 58.3644 6.07956C61.984 6.07956 63.7608 8.354 63.7608 11.5027V12.0533C63.7608 15.2009 61.985 17.4764 58.3655 17.4764C54.746 17.4764 52.9691 15.2009 52.9691 12.0533ZM60.482 11.2723C60.482 9.82495 59.8897 8.67647 58.3591 8.67647C56.8285 8.67647 56.2416 9.82495 56.2416 11.2723V12.2837C56.2416 13.731 56.8338 14.8795 58.3591 14.8795C59.8844 14.8795 60.482 13.731 60.482 12.2837V11.2723Z" fill="#8A98A8"/>
<path d="M64.8509 12.0533V11.5027C64.8509 8.354 66.6267 6.07956 70.2462 6.07956C73.8657 6.07956 75.6415 8.354 75.6415 11.5027V12.0533C75.6415 15.2009 73.8657 17.4764 70.2462 17.4764C66.6267 17.4764 64.8509 15.2009 64.8509 12.0533ZM72.3638 11.2723C72.3638 9.82495 71.7715 8.67647 70.2462 8.67647C68.7209 8.67647 68.1297 9.82495 68.1297 11.2723V12.2837C68.1297 13.731 68.7209 14.8795 70.2462 14.8795C71.7715 14.8795 72.3638 13.731 72.3638 12.2837V11.2723Z" fill="#8A98A8"/>
<path d="M80.1484 11.5252L83.3805 6.3099H86.8631L83.4718 11.7094L87 17.2461H83.5174L80.1484 11.8894V17.2461H76.8696V0.81823L80.1484 0.518256V11.5252Z" fill="#8A98A8"/>
</svg>
