<svg width="21" height="20" viewBox="0 0 21 20" fill="none" xmlns="http://www.w3.org/2000/svg">
<path d="M20.3137 0L20.4734 20C20.4734 20 19.8188 20 19.2109 20H14.1136V12.2517H16.7153L17.1041 9.23294H14.1136V7.30293C14.1136 6.4263 14.354 5.83245 15.6124 5.83245H17.2101V3.13185C16.9344 3.0965 15.9871 3.01167 14.8842 3.01167C12.5795 3.01167 11.003 4.41852 11.003 6.99894V9.22587H8.39431V12.2446H11.003V19.9929L1.5 20C0.892011 20 0.313721 20 0.313721 20V0C0.840332 0 0.808595 0 1.41658 0H19.2109C19.8188 0 20.3137 0 20.3137 0Z" fill="#3B5998"/>
</svg>
