<svg width="87" height="17" viewBox="0 0 87 17" fill="none" xmlns="http://www.w3.org/2000/svg">
<path d="M6.80703 2.66231C5.78273 2.66231 5.48659 3.12084 5.48659 4.13218V5.8099H8.21874L7.94489 8.52037H5.48765V16.7461H2.20886V8.52037H0V5.8099H2.20886V4.17825C2.20886 1.4442 3.30108 4.24508e-05 6.34848 4.24508e-05C6.98705 -0.00145742 7.62518 0.0367884 8.25908 0.114675V2.66552L6.80703 2.66231Z" fill="#1876EF"/>
<path d="M8.44589 10.933C8.44589 7.87757 9.8799 5.57634 12.8848 5.57634C14.5237 5.57634 15.5246 6.42698 16.0034 7.48332V5.8099H19.1442V16.7461H16.0034V15.0919C15.548 16.1494 14.5237 16.9764 12.8848 16.9764C9.8799 16.9764 8.44589 14.6784 8.44589 11.6198V10.933ZM11.7236 11.669C11.7236 13.2996 12.3148 14.3795 13.8401 14.3795C15.1839 14.3795 15.8664 13.3917 15.8664 11.8297V10.7316C15.8664 9.1696 15.1839 8.18183 13.8401 8.18183C12.3148 8.18183 11.7236 9.26174 11.7236 10.8923V11.669Z" fill="#1876EF"/>
<path d="M25.9735 5.57956C27.2472 5.57956 28.4541 5.85596 29.1143 6.31449L28.3861 8.65858C27.7032 8.33032 26.957 8.15762 26.2006 8.15291C24.4248 8.15291 23.6532 9.18675 23.6532 10.9566V11.5994C23.6532 13.3692 24.427 14.4031 26.2006 14.4031C26.957 14.3983 27.7032 14.2257 28.3861 13.8974L29.1143 16.2404C28.4541 16.7 27.2483 16.9764 25.9735 16.9764C22.1258 16.9764 20.3733 14.8852 20.3733 11.5308V11.0252C20.3733 7.6708 22.1258 5.57956 25.9735 5.57956Z" fill="#1876EF"/>
<path d="M29.5463 11.6958V10.7316C29.5463 7.6301 31.2987 5.5892 34.8737 5.5892C38.2427 5.5892 39.7223 7.65688 39.7223 10.6898V12.4361H32.823C32.892 13.9296 33.5522 14.5959 35.3704 14.5959C36.6006 14.5959 37.8977 14.3431 38.8541 13.9296L39.4538 16.1954C38.5887 16.6561 36.8129 17 35.243 17C31.0939 16.9989 29.5463 14.9098 29.5463 11.6958ZM32.824 10.2709H36.7853V9.99561C36.7853 8.80107 36.3077 7.85294 34.8747 7.85294C33.394 7.85401 32.824 8.79678 32.824 10.2667V10.2709Z" fill="#1876EF"/>
<path d="M51.8727 11.623C51.8727 14.6784 50.4164 16.9796 47.4146 16.9796C45.7757 16.9796 44.6379 16.1526 44.1825 15.0952V16.7493H41.0873V0.31823L44.3651 0.0182556V7.32477C44.8427 6.36056 45.8904 5.57849 47.4157 5.57849C50.4206 5.57849 51.8737 7.8765 51.8737 10.9352L51.8727 11.623ZM48.5949 10.8645C48.5949 9.32495 48.0037 8.17648 46.4328 8.17648C45.089 8.17648 44.3608 9.14068 44.3608 10.7038V11.8522C44.3608 13.4142 45.089 14.3795 46.4328 14.3795C48.0037 14.3795 48.5949 13.231 48.5949 11.6915V10.8645Z" fill="#1876EF"/>
<path d="M52.9691 11.5533V11.0027C52.9691 7.854 54.7449 5.57956 58.3644 5.57956C61.984 5.57956 63.7608 7.854 63.7608 11.0027V11.5533C63.7608 14.7009 61.985 16.9764 58.3655 16.9764C54.746 16.9764 52.9691 14.7009 52.9691 11.5533ZM60.482 10.7723C60.482 9.32495 59.8897 8.17647 58.3591 8.17647C56.8285 8.17647 56.2416 9.32495 56.2416 10.7723V11.7837C56.2416 13.231 56.8338 14.3795 58.3591 14.3795C59.8844 14.3795 60.482 13.231 60.482 11.7837V10.7723Z" fill="#1876EF"/>
<path d="M64.8509 11.5533V11.0027C64.8509 7.854 66.6267 5.57956 70.2462 5.57956C73.8657 5.57956 75.6415 7.854 75.6415 11.0027V11.5533C75.6415 14.7009 73.8657 16.9764 70.2462 16.9764C66.6267 16.9764 64.8509 14.7009 64.8509 11.5533ZM72.3638 10.7723C72.3638 9.32495 71.7715 8.17647 70.2462 8.17647C68.7209 8.17647 68.1297 9.32495 68.1297 10.7723V11.7837C68.1297 13.231 68.7209 14.3795 70.2462 14.3795C71.7715 14.3795 72.3638 13.231 72.3638 11.7837V10.7723Z" fill="#1876EF"/>
<path d="M80.1484 11.0252L83.3805 5.8099H86.8631L83.4718 11.2094L87 16.7461H83.5174L80.1484 11.3894V16.7461H76.8696V0.31823L80.1484 0.0182556V11.0252Z" fill="#1876EF"/>
</svg>
