<svg width="24" height="27" viewBox="0 0 24 27" fill="none" xmlns="http://www.w3.org/2000/svg">
<path d="M4.31229 27C4.00409 26.9207 3.68825 26.8639 3.3877 26.7589C-0.124722 25.5292 -1.14865 21.0803 1.47293 18.3367C5.13499 14.5041 8.81934 10.6945 12.5075 6.88892C14.3726 4.96433 17.4297 5.71462 18.2034 8.2825C18.5734 9.50897 18.3371 10.6403 17.5469 11.6383C17.4667 11.74 17.3775 11.8351 17.2877 11.9282C14.5859 14.7313 11.8835 17.5329 9.18293 20.3373C8.90276 20.6285 8.59647 20.8108 8.18512 20.6781C7.59101 20.4865 7.35859 19.7778 7.72219 19.2541C7.79096 19.155 7.87692 19.0678 7.96034 18.9813C10.6443 16.1975 13.3296 13.4143 16.0129 10.6298C16.63 9.98979 16.7522 9.22233 16.36 8.49847C15.9034 7.65506 14.777 7.40012 14.0268 7.9734C13.918 8.05662 13.8161 8.1504 13.7206 8.24947C10.0649 12.0392 6.40853 15.8276 2.75666 19.6213C1.53342 20.892 1.46593 22.7942 2.58346 24.0887C3.70162 25.3832 5.60302 25.5179 6.87974 24.3912C6.9829 24.3 7.0816 24.2029 7.17711 24.1039C11.7007 19.4126 16.2224 14.7194 20.7492 10.0307C21.8234 8.91786 22.3036 7.58769 22.1571 6.02239C21.9724 4.04365 20.4506 2.32777 18.5422 1.94932C16.8929 1.62239 15.4819 2.11642 14.3026 3.33827C10.7175 7.05205 7.13508 10.7685 3.55517 14.4875C3.25716 14.7973 2.93304 14.9736 2.50959 14.8204C1.93586 14.613 1.73082 13.8971 2.09824 13.3965C2.16446 13.306 2.24406 13.2254 2.32175 13.1448C5.88638 9.44689 9.45292 5.7516 13.015 2.05103C14.407 0.603299 16.0817 -0.124531 18.0506 0.0174684C20.1494 0.168714 21.8362 1.16799 22.9518 3.01861C24.3559 5.3474 24.3374 7.74488 22.9684 10.1014C22.7092 10.5472 22.3672 10.9534 22.0113 11.3239C17.489 16.0291 12.9564 20.7236 8.42836 25.4235C7.61903 26.2636 6.66833 26.8052 5.52278 26.9538C5.49095 26.9577 5.46165 26.9841 5.43109 27H4.31229Z" fill="#1D71C9"/>
</svg>
