<svg width="87" height="24" viewBox="0 0 87 24" fill="none" xmlns="http://www.w3.org/2000/svg">
<path d="M4.47781 0.0834122C2.69707 0.808789 0.739432 2.85548 0.121153 5.42648C-0.661872 8.68299 2.59661 10.0601 2.86387 9.60929C3.17842 9.07857 2.28 8.89915 2.09505 7.20945C1.85605 5.02706 2.89945 2.58848 4.21275 1.5185C4.45686 1.31971 4.44515 1.59639 4.44515 2.10817C4.44515 3.02351 4.39316 11.239 4.39316 12.9538C4.39316 15.2739 4.29461 16.0065 4.11756 16.7303C3.93817 17.464 3.64997 17.9597 3.86831 18.1508C4.11243 18.3644 5.15451 17.8563 5.75786 17.0375C6.48128 16.0555 6.73448 14.8762 6.78002 13.5954C6.83494 12.0516 6.83259 9.60174 6.83494 8.20439C6.83713 6.9228 6.85705 3.17004 6.8118 0.914022C6.80082 0.360662 5.22261 -0.219896 4.47781 0.0834122ZM86.6094 12.2719C86.3511 12.2719 86.2333 12.5307 86.1358 12.9666C85.7974 14.4822 85.442 14.8242 84.9835 14.8242C84.4712 14.8242 84.0108 14.0738 83.8926 12.5717C83.7996 11.3907 83.8146 9.21613 83.9335 7.05324C83.9578 6.60882 83.8317 6.16909 82.6058 5.73606C82.0783 5.54966 81.3116 5.27554 80.9298 6.17165C79.8512 8.70335 79.4291 10.7134 79.3298 11.5297C79.3246 11.572 79.2715 11.5805 79.262 11.4818C79.1987 10.8279 79.0572 9.63948 79.0397 7.14281C79.0363 6.65566 78.9301 6.241 78.3772 5.90152C78.0184 5.68109 76.9289 5.29163 76.5365 5.75514C76.1968 6.1342 75.803 7.15434 75.394 8.36359C75.0616 9.34628 74.83 10.0111 74.83 10.0111C74.83 10.0111 74.8343 7.35925 74.8384 6.35335C74.8401 5.97386 74.5724 5.84727 74.4918 5.82449C74.1286 5.72196 73.4126 5.55065 73.1089 5.55065C72.7339 5.55065 72.6421 5.75443 72.6421 6.05133C72.6421 6.0902 72.5829 9.54279 72.5829 11.957C72.5829 12.0618 72.583 12.1763 72.5835 12.2979C72.3761 13.4075 71.7037 14.9138 70.9723 14.9138C70.2401 14.9138 69.8948 14.2841 69.8948 11.4059C69.8948 9.72705 69.9466 8.99684 69.972 7.78261C69.9869 7.08314 70.0155 6.54588 70.0137 6.42412C70.0083 6.05033 69.3436 5.86194 69.0343 5.79216C68.7235 5.7221 68.4535 5.69476 68.2426 5.70644C67.9442 5.72281 67.7332 5.9132 67.7332 6.17507C67.7332 6.31548 67.7348 6.58233 67.7348 6.58233C67.3504 5.99494 66.7319 5.58611 66.3207 5.46764C65.2128 5.14781 64.0566 5.43132 63.1845 6.61779C62.4914 7.56061 62.0736 8.62859 61.9092 10.1628C61.7889 11.2843 61.8282 12.4218 62.0418 13.3837C61.7837 14.4691 61.3044 14.9138 60.7795 14.9138C60.0176 14.9138 59.4652 13.7045 59.5293 11.613C59.5717 10.2373 59.8547 9.27195 60.1642 7.87531C60.2961 7.2798 60.1889 6.96823 59.92 6.66948C59.6734 6.39536 59.1481 6.25553 58.3926 6.42769C57.8546 6.55029 57.0852 6.68244 56.3816 6.78382C56.3816 6.78382 56.424 6.61907 56.4589 6.32858C56.6419 4.8052 54.9395 4.9288 54.3964 5.41538C54.0722 5.70587 53.8515 6.04848 53.7677 6.66449C53.6349 7.64192 54.4547 8.10314 54.4547 8.10314C54.1857 9.30071 53.5262 10.8648 52.8456 11.9957C52.4809 12.6016 52.2018 13.0506 51.8419 13.528C51.8405 13.3505 51.8395 13.1731 51.8389 12.9957C51.8306 10.4782 51.8651 8.49687 51.8802 7.78275C51.8952 7.08329 51.924 6.5604 51.9223 6.43865C51.9183 6.16524 51.7541 6.06186 51.4126 5.93128C51.1107 5.81566 50.7537 5.73563 50.3833 5.70772C49.916 5.6724 49.6342 5.91334 49.6417 6.19842C49.6432 6.25225 49.6432 6.58276 49.6432 6.58276C49.2588 5.99536 48.6403 5.58654 48.2291 5.46806C47.1211 5.14824 45.965 5.43175 45.0929 6.61821C44.4 7.56103 43.9461 8.88406 43.8176 10.1514C43.6978 11.3326 43.7199 12.3364 43.8832 13.1819C43.707 14.0286 43.2005 14.9141 42.6277 14.9141C41.8955 14.9141 41.4789 14.2844 41.4789 11.4062C41.4789 9.72734 41.5307 8.99726 41.5561 7.78289C41.571 7.08343 41.5996 6.54616 41.5978 6.42441C41.5924 6.05061 40.9277 5.86222 40.6184 5.79245C40.2948 5.71954 40.0153 5.69291 39.8008 5.70829C39.5176 5.72879 39.3187 5.97514 39.3187 6.15898V6.58276C38.9343 5.99536 38.3159 5.58654 37.9047 5.46806C36.7967 5.14824 35.647 5.43631 34.7685 6.61821C34.1956 7.38887 33.7318 8.24326 33.4931 10.1346C33.4241 10.6811 33.3937 11.193 33.3976 11.6714C33.1692 13.0298 32.1603 14.5955 31.3348 14.5955C30.8519 14.5955 30.3919 13.6847 30.3919 11.7434C30.3919 9.15746 30.5566 5.47575 30.5843 5.1209C30.5843 5.1209 31.6271 5.10367 31.8291 5.10139C32.3494 5.09583 32.8205 5.10779 33.5132 5.07333C33.8607 5.0561 34.1954 3.84344 33.8368 3.69335C33.6744 3.62543 32.5254 3.56591 32.0701 3.55651C31.6872 3.54811 30.6209 3.47135 30.6209 3.47135C30.6209 3.47135 30.7166 1.02751 30.739 0.769345C30.7579 0.554039 30.4716 0.443395 30.3074 0.376041C29.9081 0.211998 29.551 0.133252 29.1277 0.0483822C28.5428 -0.068954 28.2773 0.0458191 28.2256 0.525986C28.1475 1.25435 28.1071 3.38833 28.1071 3.38833C27.6777 3.38833 26.2117 3.30674 25.7823 3.30674C25.3833 3.30674 24.9529 4.97494 25.5044 4.99544C26.1389 5.01937 27.2447 5.04001 27.9778 5.06151C27.9778 5.06151 27.9451 8.80403 27.9451 9.95945C27.9451 10.0823 27.9456 10.2007 27.9465 10.3156C27.543 12.3604 26.1218 13.465 26.1218 13.465C26.427 12.1122 25.8036 11.0964 24.6808 10.2364C24.267 9.91943 23.4504 9.31965 22.5366 8.6622C22.5366 8.6622 23.0658 8.15498 23.5352 7.13441C23.8678 6.41159 23.8821 5.5844 23.0657 5.40199C21.7171 5.10053 20.6049 6.06357 20.2732 7.09183C20.0162 7.88855 20.1533 8.4795 20.6567 9.09367C20.6935 9.13852 20.7333 9.18423 20.7745 9.23037C20.47 9.80096 20.0518 10.5692 19.6975 11.165C18.7142 12.8191 17.9716 14.1274 17.4101 14.1274C16.9614 14.1274 16.9676 12.7992 16.9676 11.5554C16.9676 10.4833 17.049 8.87138 17.114 7.20247C17.1355 6.65054 16.8516 6.33612 16.3758 6.05133C16.0867 5.87831 15.4697 5.53812 15.1126 5.53812C14.5778 5.53812 13.0347 5.60889 11.5767 9.70982C11.3929 10.2267 11.032 11.1686 11.032 11.1686L11.063 6.23701C11.063 6.12139 10.9996 6.00946 10.8546 5.93299C10.6089 5.80341 9.95269 5.53812 9.36926 5.53812C9.09132 5.53812 8.95249 5.66386 8.95249 5.91448L8.90153 13.63C8.90153 14.2163 8.9172 14.9002 8.97694 15.1993C9.03625 15.4989 9.13247 15.7424 9.25167 15.8873C9.37058 16.032 9.50824 16.1424 9.73522 16.188C9.94639 16.2302 11.1028 16.3746 11.163 15.9449C11.2351 15.4298 11.2377 14.8728 11.845 12.7952C12.7904 9.56059 14.023 7.98239 14.6027 7.42191C14.7039 7.32394 14.8195 7.3181 14.814 7.47844C14.7894 8.18744 14.7024 9.95959 14.6437 11.465C14.4867 15.4938 15.2404 16.2405 16.3175 16.2405C17.1415 16.2405 18.3031 15.4442 19.5483 13.429C20.3244 12.173 21.0782 10.9416 21.6199 10.054C21.9973 10.3938 22.4206 10.7593 22.844 11.1499C23.8275 12.0575 24.1504 12.9201 23.9361 13.7383C23.7723 14.3638 23.1552 15.0085 22.0569 14.3819C21.7367 14.1992 21.6 14.058 21.2782 13.8518C21.1053 13.7411 20.8414 13.7079 20.6831 13.824C20.2717 14.1255 20.0365 14.5091 19.9023 14.9838C19.7716 15.4458 20.2474 15.69 20.7406 15.9036C21.1653 16.0874 22.0781 16.254 22.6602 16.273C24.9281 16.3467 26.7452 15.2081 28.0099 12.271C28.2364 14.8075 29.1999 16.2429 30.8741 16.2429C31.9934 16.2429 33.1156 14.8362 33.6063 13.4522C33.7472 14.0164 33.9557 14.5068 34.225 14.9217C35.515 16.9092 38.0176 16.4814 39.2746 14.7939C39.6631 14.2724 39.7225 14.0849 39.7225 14.0849C39.9058 15.6784 41.2255 16.2354 41.9812 16.2354C42.8275 16.2354 43.7013 15.8463 44.3137 14.5057C44.3839 14.6487 44.4626 14.7877 44.5493 14.9219C45.8393 16.9093 48.3419 16.4816 49.5989 14.794C49.6581 14.7147 49.7097 14.6429 49.7545 14.5784L49.7914 15.6253L48.6342 16.6574C46.6943 18.3863 45.2205 19.6976 45.1121 21.2247C44.9743 23.1719 46.5973 23.8955 47.827 23.9904C49.1306 24.0911 50.249 23.3902 50.9355 22.4092C51.5396 21.546 51.9348 19.6878 51.906 17.8524C51.8944 17.1175 51.8754 16.1831 51.8603 15.1815C52.5413 14.4125 53.3086 13.4405 54.0149 12.303C54.7849 11.0632 55.61 9.3984 56.0323 8.10272C56.0323 8.10272 56.7491 8.1087 57.5141 8.06C57.7589 8.04448 57.829 8.09289 57.7839 8.26747C57.7293 8.47808 56.8174 11.8983 57.6496 14.1767C58.2193 15.7364 59.5034 16.2382 60.2648 16.2382C61.156 16.2382 62.0085 15.5838 62.4654 14.6119C62.5204 14.7203 62.5781 14.8251 62.6408 14.9219C63.9308 16.9093 66.4246 16.4792 67.6904 14.794C67.976 14.4138 68.1382 14.085 68.1382 14.085C68.4099 15.7343 69.7289 16.2438 70.4844 16.2438C71.2714 16.2438 72.0182 15.9301 72.624 14.5358C72.6494 15.1499 72.6892 15.6517 72.7522 15.8099C72.7905 15.9067 73.0142 16.0282 73.1769 16.0868C73.8968 16.3463 74.631 16.2237 74.9027 16.1703C75.0909 16.1333 75.2376 15.9865 75.2577 15.6074C75.3102 14.612 75.278 12.9397 75.5883 11.6967C76.1092 9.61086 76.5951 8.80161 76.8256 8.40118C76.9546 8.17676 77.1002 8.13974 77.1055 8.37726C77.1162 8.85785 77.1408 10.2692 77.3427 12.1653C77.4909 13.5598 77.6887 14.3842 77.8409 14.6451C78.2751 15.3909 78.8114 15.4263 79.2481 15.4263C79.5257 15.4263 80.1068 15.3518 80.0548 14.877C80.0295 14.6456 80.0738 13.2155 80.5874 11.1606C80.9228 9.81862 81.4819 8.60624 81.6835 8.16281C81.7579 7.99934 81.7925 8.12821 81.7913 8.15327C81.7488 9.07743 81.6535 12.1003 82.0407 13.7535C82.5656 15.9933 84.0837 16.2438 84.6128 16.2438C85.7423 16.2438 86.6661 15.4083 86.9773 13.21C87.053 12.6804 86.942 12.2719 86.6094 12.2719ZM39.2956 10.9128C39.2309 12.0762 38.9974 13.0488 38.6228 13.7552C37.9451 15.0338 36.6041 15.4392 36.0129 13.5917C35.5866 12.2596 35.7318 10.443 35.9091 9.46191C36.1723 8.0056 36.8313 6.97321 37.86 7.07104C38.9167 7.17157 39.4305 8.49203 39.2956 10.9128ZM49.6199 10.9296C49.5596 12.0282 49.2667 13.1318 48.9471 13.7554C48.2876 15.0428 46.9087 15.4452 46.3372 13.5919C45.9465 12.3255 46.0401 10.6867 46.2334 9.65415C46.4843 8.31418 47.0923 7.07118 48.1843 7.07118C49.246 7.07104 49.7696 8.20368 49.6199 10.9296ZM49.8893 18.4247C49.875 20.4289 49.5508 22.1861 48.8552 22.6964C47.8686 23.4201 46.5426 22.8773 46.8171 21.4148C47.0601 20.1207 48.2091 18.7991 49.8923 17.1843C49.8921 17.1843 49.8956 17.5526 49.8893 18.4247ZM67.7116 10.9413C67.6542 12.1474 67.3797 13.0902 67.0389 13.7552C66.3792 15.0426 65.0101 15.4424 64.429 13.5917C64.1122 12.583 64.0975 10.8981 64.3252 9.49039C64.557 8.05644 65.2043 6.97321 66.2761 7.07104C67.3332 7.16744 67.8281 8.49203 67.7116 10.9413Z" fill="#8A98A8"/>
</svg>
