<svg width="16" height="16" viewBox="0 0 16 16" fill="none" xmlns="http://www.w3.org/2000/svg">
<path d="M8.27573 12.0458C8.51431 11.4783 8.79313 10.9911 9.30477 10.639C9.67629 10.7715 10.0485 10.9018 10.42 11.0357C11.457 11.41 12.4918 11.7913 13.5323 12.1552C13.7407 12.2277 13.8176 12.342 13.8327 12.5414C13.9318 13.8163 13.1385 15.0697 11.7703 15.4384C11.1444 15.6071 9.58862 15.3869 9.0971 15.2816C8.0695 15.062 7.12166 14.6445 6.22197 14.1203C5.27629 13.5696 4.41684 12.9094 3.64722 12.144C2.6419 11.1437 1.78964 10.0333 1.1932 8.75414C0.981209 8.30034 0.777127 7.83747 0.633406 7.36067C0.504777 6.93406 0.45663 6.48374 0.386926 6.04249C0.349559 5.80548 0.334468 5.56499 0.319377 5.32519C0.243206 4.12621 0.943124 3.10081 2.00809 2.64492C2.54776 2.41349 3.10755 2.40164 3.69752 2.47065C4.25013 3.91848 4.79842 5.35308 5.3539 6.80788C5.03125 7.32303 4.48511 7.5677 3.91023 7.81656C4.93424 9.66592 6.37288 11.0489 8.27573 12.0451V12.0458Z" fill="#1D71C9"/>
<path d="M12.2834 9.22466H10.8699C10.8699 8.14907 10.4739 7.10554 9.7539 6.28647C9.03458 5.46809 8.035 4.92298 6.93914 4.75359L7.16262 3.39985C8.58976 3.62153 9.89187 4.33046 10.8289 5.39699C11.7667 6.46353 12.2827 7.82283 12.2827 9.22466H12.2834Z" fill="#1D71C9"/>
<path d="M15.3137 9.4317H13.9563C13.9563 7.59489 13.2801 5.81385 12.0513 4.4169C10.8232 3.01925 9.1165 2.09004 7.24742 1.80006L7.46156 0.5C9.6497 0.839478 11.646 1.92692 13.0839 3.56297C14.5218 5.19833 15.3137 7.2826 15.3137 9.43239V9.4317Z" fill="#1D71C9"/>
</svg>
