<svg width="142" height="98" viewBox="0 0 142 98" fill="none" xmlns="http://www.w3.org/2000/svg">
<path d="M75.3533 97.7244C75.3135 97.4628 75.2621 97.2783 75.2621 97.0938C75.2575 93.5575 75.2574 90.0213 75.2574 86.4337C90.1196 85.5695 100.034 78.142 105.351 64.1489C104.563 63.9971 104.005 63.892 103.449 63.7822C89.4535 61.0331 79.0157 49.3244 77.6858 34.8828C76.412 21.0532 84.6997 7.59037 97.6851 2.39815C117.885 -5.68331 139.944 7.76555 141.821 29.4407C142.533 37.6576 141.084 45.7041 138.156 53.3581C128.931 77.467 111.545 92.0207 86.1581 96.8835C82.9678 97.4955 79.6607 97.5002 76.405 97.7734C76.0708 97.8015 75.7272 97.7454 75.3509 97.7244H75.3533Z" fill="#E2E5E9"/>
<path d="M0 98L1.01181e-06 86.4337C14.8388 85.5251 24.7531 78.1303 30.0095 64.163C28.8222 63.9084 27.8733 63.7285 26.9384 63.4996C12.151 59.9003 2.01465 46.7715 2.2694 31.5592C2.52182 16.6155 13.2472 3.7365 27.9902 0.672084C46.7554 -3.22617 65.0042 10.2904 66.4953 29.3823C67.2549 39.1081 65.2683 48.4882 61.288 57.3171C51.4134 79.2211 34.5506 92.4504 10.9006 96.8765C7.36916 97.5375 3.73015 97.6286 0 98Z" fill="#E2E5E9"/>
</svg>
