<svg width="18" height="18" viewBox="0 0 18 18" fill="none" xmlns="http://www.w3.org/2000/svg">
<path d="M10.9937 13.3629L11.5128 12.8472L10.4414 11.783C9.32215 12.5985 7.95623 13.0447 6.56453 13.0447C2.94539 13.0447 0 10.1191 0 6.52052C0 2.92198 2.94539 0 6.56453 0C10.1837 0 13.1291 2.92564 13.1291 6.52052C13.1291 7.9614 12.6431 9.36205 11.7558 10.503L12.8124 11.5526L13.3316 11.037L18 15.6741L15.6584 18L10.99 13.3629H10.9937ZM6.56453 2.19423C4.16036 2.19423 2.20904 4.13612 2.20904 6.52052C2.20904 8.90492 4.16404 10.8468 6.56453 10.8468C8.96502 10.8468 10.92 8.90492 10.92 6.52052C10.92 4.13612 8.96502 2.19423 6.56453 2.19423Z" fill="#1D71C9"/>
</svg>
