<svg width="285" height="342" viewBox="0 0 285 342" fill="none" xmlns="http://www.w3.org/2000/svg">
<g style="mix-blend-mode:darken">
<line y1="-1" x2="297.274" y2="-1" transform="matrix(0.996193 0.0871737 0.0871737 -0.996193 -103.736 261.261)" stroke="#E2E5E9" stroke-width="2"/>
<line y1="-1" x2="366.885" y2="-1" transform="matrix(0.996195 0.0871558 0.0871558 -0.996195 -99.5916 213.883)" stroke="#E2E5E9" stroke-width="2"/>
<line y1="-1" x2="366.885" y2="-1" transform="matrix(0.996195 0.0871558 0.0871558 -0.996195 -95.4463 166.505)" stroke="#E2E5E9" stroke-width="2"/>
<line y1="-1" x2="366.885" y2="-1" transform="matrix(0.996195 0.0871558 0.0871558 -0.996195 -91.3013 119.126)" stroke="#E2E5E9" stroke-width="2"/>
<line y1="-1" x2="366.885" y2="-1" transform="matrix(0.996195 0.0871558 0.0871558 -0.996195 -87.1562 71.7481)" stroke="#E2E5E9" stroke-width="2"/>
<line y1="-1" x2="353.976" y2="-1" transform="matrix(0.996195 0.0871558 0.0871558 -0.996195 -83.0112 24.37)" stroke="#E2E5E9" stroke-width="2"/>
<line y1="-1" x2="311.173" y2="-1" transform="matrix(-0.0871559 0.996195 0.996195 0.0871559 1.01709 7.16905)" stroke="#E2E5E9" stroke-width="2"/>
<line y1="-1" x2="311.173" y2="-1" transform="matrix(-0.0871559 0.996195 0.996195 0.0871559 48.3953 11.3141)" stroke="#E2E5E9" stroke-width="2"/>
<line y1="-1" x2="311.173" y2="-1" transform="matrix(-0.0871559 0.996195 0.996195 0.0871559 95.7737 15.4592)" stroke="#E2E5E9" stroke-width="2"/>
<line y1="-1" x2="311.173" y2="-1" transform="matrix(-0.0871559 0.996195 0.996195 0.0871559 143.152 19.6042)" stroke="#E2E5E9" stroke-width="2"/>
<line y1="-1" x2="311.173" y2="-1" transform="matrix(-0.0871559 0.996195 0.996195 0.0871559 190.53 23.7493)" stroke="#E2E5E9" stroke-width="2"/>
<line y1="-1" x2="243.004" y2="-1" transform="matrix(-0.0871557 0.996195 0.996195 0.0871557 236.926 27.8043)" stroke="#E2E5E9" stroke-width="2"/>
<path fill-rule="evenodd" clip-rule="evenodd" d="M106.534 152.605C110.427 152.945 113.296 156.51 112.941 160.565C112.586 164.621 109.142 167.633 105.249 167.292C101.355 166.952 98.4864 163.388 98.8412 159.332C99.196 155.276 102.64 152.264 106.534 152.605ZM106.981 147.496C113.583 148.074 118.447 154.117 117.846 160.994C117.244 167.872 111.404 172.979 104.802 172.401C98.1996 171.823 93.3352 165.78 93.9369 158.903C94.5385 152.025 100.378 146.919 106.981 147.496Z" fill="#E2E5E9"/>
<path fill-rule="evenodd" clip-rule="evenodd" d="M158.291 111.755C162.184 112.096 165.065 115.528 164.724 119.422C164.383 123.316 160.951 126.196 157.057 125.855C153.164 125.515 150.283 122.082 150.624 118.188C150.965 114.295 154.397 111.415 158.291 111.755ZM158.72 106.851C165.322 107.429 170.206 113.249 169.628 119.851C169.051 126.453 163.23 131.337 156.628 130.76C150.026 130.182 145.142 124.362 145.72 117.759C146.297 111.157 152.118 106.273 158.72 106.851Z" fill="#E2E5E9"/>
<path fill-rule="evenodd" clip-rule="evenodd" d="M197.916 209.581C201.809 209.922 204.689 213.354 204.349 217.248C204.008 221.141 200.576 224.022 196.682 223.681C192.788 223.34 189.908 219.908 190.249 216.014C190.589 212.121 194.022 209.24 197.916 209.581ZM198.345 204.677C204.947 205.254 209.831 211.075 209.253 217.677C208.676 224.279 202.855 229.163 196.253 228.585C189.651 228.008 184.767 222.187 185.344 215.585C185.922 208.983 191.742 204.099 198.345 204.677Z" fill="#E2E5E9"/>
<path fill-rule="evenodd" clip-rule="evenodd" d="M62.6561 103.388C66.5497 103.729 69.4299 107.161 69.0893 111.055C68.7486 114.949 65.3161 117.829 61.4225 117.488C57.5289 117.148 54.6486 113.715 54.9893 109.821C55.3299 105.928 58.7625 103.048 62.6561 103.388ZM63.0851 98.4839C69.6873 99.0615 74.5712 104.882 73.9936 111.484C73.416 118.086 67.5956 122.97 60.9934 122.393C54.3912 121.815 49.5073 115.995 50.0849 109.392C50.6626 102.79 56.4829 97.9062 63.0851 98.4839Z" fill="#E2E5E9"/>
<path fill-rule="evenodd" clip-rule="evenodd" d="M54.4634 197.031C58.357 197.371 61.2373 200.804 60.8966 204.697C60.556 208.591 57.1235 211.471 53.2298 211.131C49.3362 210.79 46.456 207.357 46.7966 203.464C47.1373 199.57 50.5698 196.69 54.4634 197.031ZM54.8925 192.126C61.4947 192.704 66.3786 198.524 65.801 205.126C65.2234 211.729 59.403 216.613 52.8008 216.035C46.1986 215.457 41.3147 209.637 41.8923 203.035C42.4699 196.432 48.2903 191.549 54.8925 192.126Z" fill="#E2E5E9"/>
<path fill-rule="evenodd" clip-rule="evenodd" d="M46.2529 290.877C50.1465 291.218 53.0153 294.782 52.6604 298.838C52.3056 302.894 48.8615 305.905 44.9679 305.565C41.0743 305.224 38.2056 301.66 38.5604 297.604C38.9153 293.548 42.3593 290.537 46.2529 290.877ZM46.6999 285.769C53.3021 286.346 58.1665 292.39 57.5648 299.267C56.9631 306.144 51.1232 311.251 44.521 310.673C37.9188 310.096 33.0544 304.052 33.6561 297.175C34.2578 290.298 40.0977 285.191 46.6999 285.769Z" fill="#E2E5E9"/>
<path d="M62.4385 156.131L70.7195 148.909L66.7842 143.979L58.5005 151.232L51.6021 142.651L46.8026 146.911L53.6493 155.394L45.4254 162.652L49.4232 167.556L57.6716 160.363L64.5156 168.876L69.3396 164.681L62.4385 156.131Z" fill="#E2E5E9"/>
<path d="M107.025 208.718L115.278 201.812L111.327 197.064L103.071 204L96.1451 195.735L91.3618 199.81L98.2359 207.979L90.0398 214.921L94.0534 219.644L102.274 212.765L109.146 220.964L113.954 216.953L107.025 208.718Z" fill="#E2E5E9"/>
<path d="M149.75 259.634L158.059 252.097L154.139 246.985L145.828 254.555L138.957 245.657L134.141 250.102L140.961 258.898L132.709 266.473L136.691 271.558L144.967 264.05L151.783 272.878L156.623 268.5L149.75 259.634Z" fill="#E2E5E9"/>
<path d="M114.221 114.989L122.475 108.082L118.523 103.334L110.267 110.271L103.341 102.006L98.5581 106.08L105.432 114.25L97.236 121.191L101.25 125.915L109.471 119.035L116.342 127.235L121.15 123.223L114.221 114.989Z" fill="#E2E5E9"/>
<path d="M157.855 166.989L166.109 160.083L162.157 155.335L153.901 162.271L146.975 154.007L142.192 158.081L149.066 166.251L140.87 173.192L144.884 177.915L153.105 171.036L159.976 179.236L164.784 175.224L157.855 166.989Z" fill="#E2E5E9"/>
<path d="M257.673 127.539L265.927 120.633L261.976 115.885L253.72 122.821L246.794 114.556L242.01 118.631L248.884 126.8L240.688 133.742L244.702 138.465L252.923 131.586L259.794 139.785L264.602 135.774L257.673 127.539Z" fill="#E2E5E9"/>
</g>
</svg>
