<svg width="80" height="18" viewBox="0 0 80 18" fill="none" xmlns="http://www.w3.org/2000/svg">
<path fill-rule="evenodd" clip-rule="evenodd" d="M22.7233 0.603745C23.8217 0.897763 24.6849 1.76092 24.9789 2.85929C25.5102 4.8481 25.5124 9.00006 25.5124 9.00006C25.5124 9.00006 25.5124 13.152 24.9789 15.1409C24.6849 16.2392 23.8217 17.1024 22.7233 17.3963C20.7346 17.9298 12.7561 17.9298 12.7561 17.9298C12.7561 17.9298 4.77779 17.9298 2.78897 17.3963C1.69061 17.1024 0.827451 16.2392 0.533433 15.1409C0 13.152 0 9.00006 0 9.00006C0 9.00006 0 4.8481 0.533433 2.85929C0.827451 1.76092 1.69061 0.897763 2.78897 0.603745C4.77779 0.0703125 12.7561 0.0703125 12.7561 0.0703125C12.7561 0.0703125 20.7346 0.0703125 22.7233 0.603745ZM16.8306 9.00051L10.2026 12.8269V5.17405L16.8306 9.00051Z" fill="#8A98A8"/>
<path d="M30.8991 11.6822L28.0345 1.33694H30.5337L31.5376 6.02652C31.7938 7.18159 31.9807 8.16656 32.1025 8.9814H32.1759C32.26 8.39757 32.449 7.41891 32.7409 6.04333L33.7804 1.33694H36.2796L33.3793 11.6822V16.6448H30.897V11.6822H30.8991Z" fill="#8A98A8"/>
<path d="M37.0314 16.3169C36.5275 15.9766 36.1683 15.4474 35.9541 14.7291C35.742 14.0109 35.6349 13.0575 35.6349 11.8646V10.2411C35.6349 9.03777 35.7567 8.06965 36.0003 7.3409C36.2439 6.61216 36.6241 6.07873 37.1407 5.74481C37.6573 5.41089 38.3356 5.24288 39.1757 5.24288C40.0032 5.24288 40.6647 5.41299 41.1645 5.75321C41.6622 6.09343 42.0276 6.62686 42.2587 7.34931C42.4897 8.07385 42.6052 9.03777 42.6052 10.2411V11.8646C42.6052 13.0575 42.4918 14.0151 42.2671 14.7375C42.0424 15.4621 41.677 15.9914 41.1729 16.3252C40.6689 16.6592 39.9842 16.8272 39.1211 16.8272C38.2306 16.8292 37.5355 16.6571 37.0314 16.3169ZM39.8582 14.5654C39.9968 14.2 40.0683 13.6056 40.0683 12.7782V9.29405C40.0683 8.49178 39.999 7.90374 39.8582 7.53412C39.7175 7.1624 39.4719 6.97759 39.119 6.97759C38.7788 6.97759 38.5373 7.1624 38.3987 7.53412C38.258 7.90584 38.1887 8.49178 38.1887 9.29405V12.7782C38.1887 13.6056 38.2558 14.202 38.3903 14.5654C38.5247 14.9308 38.7661 15.1135 39.119 15.1135C39.4719 15.1135 39.7175 14.9308 39.8582 14.5654Z" fill="#8A98A8"/>
<path d="M50.7347 16.6469H48.7648L48.5463 15.2776H48.4918C47.9562 16.3109 47.1539 16.8275 46.0829 16.8275C45.3415 16.8275 44.7934 16.5839 44.4406 16.0988C44.0878 15.6115 43.9114 14.8513 43.9114 13.818V5.4616H46.4295V13.671C46.4295 14.1709 46.484 14.5257 46.5932 14.7379C46.7024 14.95 46.8851 15.057 47.1413 15.057C47.3598 15.057 47.5698 14.9899 47.7714 14.8555C47.973 14.721 48.12 14.5509 48.2187 14.3452V5.4595H50.7347V16.6469Z" fill="#8A98A8"/>
<path d="M57.5751 3.36324H55.0759V16.6465H52.6124V3.36324H50.1133V1.33872H57.5751V3.36324Z" fill="#8A98A8"/>
<path d="M63.6484 16.6469H61.6785L61.4601 15.2776H61.4055C60.87 16.3109 60.0677 16.8275 58.9966 16.8275C58.2553 16.8275 57.7072 16.5839 57.3544 16.0988C57.0015 15.6115 56.8251 14.8513 56.8251 13.818V5.4616H59.3432V13.671C59.3432 14.1709 59.3977 14.5257 59.507 14.7379C59.6162 14.95 59.7989 15.057 60.0552 15.057C60.2735 15.057 60.4835 14.9899 60.6851 14.8555C60.8868 14.721 61.0338 14.5509 61.1324 14.3452V5.4595H63.6484V16.6469Z" fill="#8A98A8"/>
<path d="M71.9818 7.24862C71.8285 6.54298 71.5827 6.03265 71.2426 5.71553C70.9024 5.39841 70.434 5.2409 69.8376 5.2409C69.3756 5.2409 68.9429 5.37111 68.5418 5.63362C68.1407 5.89614 67.8298 6.23846 67.6114 6.66478H67.5926V0.771825H65.1669V16.6446H67.246L67.5022 15.5861H67.5568C67.7521 15.9641 68.0441 16.2603 68.4326 16.4808C68.8211 16.6992 69.2538 16.8085 69.7284 16.8085C70.5789 16.8085 71.2069 16.4157 71.608 15.6323C72.0091 14.8469 72.2107 13.6225 72.2107 11.955V10.1846C72.2107 8.93502 72.133 7.95427 71.9818 7.24862ZM69.6737 11.8122C69.6737 12.627 69.6402 13.2655 69.5729 13.7275C69.5058 14.1895 69.3944 14.5193 69.2348 14.7125C69.0773 14.9078 68.8631 15.0044 68.5964 15.0044C68.3885 15.0044 68.1974 14.9561 68.0209 14.8574C67.8446 14.7608 67.7018 14.6138 67.5926 14.4205V8.07187C67.6765 7.76735 67.8236 7.51954 68.0315 7.32423C68.2373 7.12892 68.4641 7.03231 68.7056 7.03231C68.9619 7.03231 69.1592 7.13311 69.2979 7.33263C69.4385 7.53424 69.5351 7.87026 69.5898 8.34489C69.6443 8.81951 69.6717 9.49365 69.6717 10.3694V11.8122H69.6737Z" fill="#8A98A8"/>
<path d="M75.7829 12.457C75.7829 13.1752 75.8039 13.7129 75.846 14.072C75.8879 14.4311 75.9762 14.6916 76.1105 14.8575C76.2449 15.0212 76.4508 15.1031 76.7301 15.1031C77.106 15.1031 77.3664 14.9561 77.505 14.6642C77.6458 14.3723 77.7214 13.8851 77.734 13.2047L79.9055 13.3327C79.9181 13.4293 79.9244 13.5637 79.9244 13.7338C79.9244 14.7671 79.6408 15.54 79.0759 16.0503C78.511 16.5606 77.7109 16.8168 76.6776 16.8168C75.4364 16.8168 74.567 16.4283 74.0692 15.6492C73.5694 14.8701 73.3216 13.6667 73.3216 12.0369V10.0838C73.3216 8.40583 73.5799 7.17936 74.0965 6.40651C74.6132 5.63366 75.4973 5.24724 76.7511 5.24724C77.6142 5.24724 78.2779 5.40475 78.7399 5.72187C79.2019 6.03898 79.5274 6.53041 79.7165 7.20036C79.9055 7.8703 80 8.79435 80 9.97459V11.8899H75.7829V12.457ZM76.1022 7.18566C75.974 7.34316 75.8901 7.60148 75.846 7.9606C75.8039 8.31973 75.7829 8.86366 75.7829 9.59454V10.3968H77.6248V9.59454C77.6248 8.87626 77.5996 8.33233 77.5513 7.9606C77.503 7.58888 77.4147 7.32846 77.2866 7.17516C77.1585 7.02395 76.9611 6.94624 76.6944 6.94624C76.4256 6.94834 76.2282 7.02815 76.1022 7.18566Z" fill="#8A98A8"/>
</svg>
