<svg width="21" height="20" viewBox="0 0 21 20" fill="none" xmlns="http://www.w3.org/2000/svg">
<path d="M9.80593 7.41076C10.0372 7.41076 10.1579 7.22976 10.1579 6.97838V4.84666C10.1579 4.58522 10.0473 4.41428 9.78582 4.41428C9.54449 4.41428 9.43388 4.59527 9.43388 4.84666V6.97838C9.43388 7.21971 9.57466 7.41076 9.80593 7.41076Z" fill="#E00101"/>
<path d="M14.8436 12.1066C14.1096 12.1066 13.6169 12.6295 13.6169 13.3937V15.3545C13.6169 16.1388 14.009 16.7019 14.7833 16.7019C15.638 16.7019 16 16.189 16 15.3545V15.0226H15.1654V15.3243C15.1654 15.7064 15.1453 15.9377 14.8034 15.9377C14.4615 15.9377 14.4515 15.6561 14.4515 15.3243V14.4997H16V13.3937C16 12.6094 15.6279 12.1066 14.8436 12.1066ZM15.1654 13.816H14.4515V13.3736C14.4515 13.0719 14.5118 12.8607 14.8135 12.8607C15.1151 12.8607 15.1654 13.0719 15.1654 13.3736V13.816Z" fill="#E00101"/>
<path d="M19.2076 0H1.4198C0.806431 0 0.313721 0 0.313721 0V20C0.313721 20 0.806431 20 1.4198 20H19.2076C19.821 20 20.3137 20 20.3137 20V0C20.3137 0 19.821 0 19.2076 0ZM11.7567 3.57969H12.6114V7.08899C12.6114 7.26998 12.6516 7.4007 12.8426 7.4007C13.0035 7.4007 13.2348 7.18954 13.3454 7.05882V3.57969H14.2001V8.15485H13.3454V7.65209C12.9733 8.09452 12.6214 8.22524 12.36 8.22524C11.9075 8.22524 11.7667 7.86325 11.7667 7.41076V3.57969H11.7567ZM9.80593 3.53947C10.4997 3.53947 11.0327 4.05229 11.0327 4.76621V7.00854C11.0327 7.77275 10.4897 8.23529 9.80593 8.23529C8.98139 8.23529 8.55907 7.81297 8.55907 7.00854V4.76621C8.55907 4.03218 9.05178 3.53947 9.80593 3.53947ZM6.3469 1.95073L7.01055 4.43439L7.62393 1.95073H8.59929L7.48315 5.64103V8.15485H6.5279V5.64103L5.38159 1.95073H6.3469ZM14.8939 17.9487C13.1543 18.0694 7.4731 18.0694 5.73353 17.9487C3.84313 17.818 3.62192 16.6717 3.61186 13.6853C3.62192 10.6888 3.84313 9.54248 5.73353 9.42182C7.4731 9.30116 13.1543 9.30116 14.8939 9.42182C16.7843 9.55254 17.0055 10.6988 17.0156 13.6853C17.0055 16.6818 16.7843 17.8281 14.8939 17.9487Z" fill="#E00101"/>
<path d="M12.2091 12.1569C11.9175 12.1569 11.6662 12.3379 11.4852 12.5591V10.6586H10.6707V16.5711H11.4852V16.2393C11.7164 16.5209 11.9578 16.6315 12.2594 16.6315C12.8024 16.6315 13.0035 16.2092 13.0035 15.6762V13.2529C13.0035 12.6596 12.8024 12.1569 12.2192 12.1569H12.2091ZM12.1689 13.3032V15.5556C12.1689 15.6963 12.1488 15.7969 12.0985 15.8572C12.008 15.9779 11.817 15.9678 11.6863 15.8974L11.4952 15.7466V13.0317L11.6662 12.901C11.8069 12.8306 11.9879 12.8406 12.0885 12.9713C12.1488 13.0518 12.179 13.1624 12.179 13.3032H12.1689Z" fill="#E00101"/>
<path d="M7.57365 11.5234V10.6586H4.76822V11.5234H5.71342V16.5812H6.62845V11.5234H7.57365Z" fill="#E00101"/>
<path d="M9.07189 15.5254C8.97134 15.6461 8.75012 15.8572 8.58924 15.8572C8.4183 15.8572 8.37808 15.7366 8.37808 15.5656V12.2172H7.57365V15.8673C7.57365 16.7521 8.17697 16.7622 8.60935 16.5108C8.77023 16.4203 8.93112 16.2795 9.07189 16.1086V16.5913H9.88637V12.2273H9.07189V15.5354V15.5254Z" fill="#E00101"/>
</svg>
