<svg width="80" height="18" viewBox="0 0 80 18" fill="none" xmlns="http://www.w3.org/2000/svg">
<path d="M30.8997 11.6119L28.0352 1.26665H30.5343L31.5382 5.95624C31.7944 7.11131 31.9813 8.09627 32.1031 8.91112H32.1766C32.2606 8.32728 32.4497 7.34863 32.7416 5.97304L33.7811 1.26665H36.2803L33.38 11.6119V16.5745H30.8977V11.6119H30.8997Z" fill="black"/>
<path d="M37.0321 16.2466C36.5281 15.9063 36.1689 15.3771 35.9547 14.6589C35.7426 13.9406 35.6356 12.9872 35.6356 11.7943V10.1709C35.6356 8.96748 35.7574 7.99936 36.001 7.27062C36.2446 6.54188 36.6247 6.00844 37.1413 5.67452C37.658 5.3406 38.3363 5.17259 39.1764 5.17259C40.0038 5.17259 40.6653 5.3427 41.1651 5.68293C41.6629 6.02314 42.0283 6.55658 42.2593 7.27902C42.4903 8.00356 42.6059 8.96748 42.6059 10.1709V11.7943C42.6059 12.9872 42.4925 13.9448 42.2678 14.6673C42.043 15.3918 41.6776 15.9211 41.1735 16.255C40.6695 16.5889 39.9849 16.7569 39.1217 16.7569C38.2313 16.759 37.5362 16.5868 37.0321 16.2466ZM39.8589 14.4951C39.9975 14.1297 40.0689 13.5353 40.0689 12.7079V9.22377C40.0689 8.42149 39.9996 7.83345 39.8589 7.46383C39.7182 7.09211 39.4725 6.9073 39.1196 6.9073C38.7795 6.9073 38.5379 7.09211 38.3993 7.46383C38.2586 7.83556 38.1893 8.42149 38.1893 9.22377V12.7079C38.1893 13.5353 38.2565 14.1317 38.3909 14.4951C38.5253 14.8605 38.7668 15.0432 39.1196 15.0432C39.4725 15.0432 39.7182 14.8605 39.8589 14.4951Z" fill="black"/>
<path d="M50.7353 16.5766H48.7654L48.547 15.2073H48.4924C47.9568 16.2406 47.1546 16.7572 46.0835 16.7572C45.3422 16.7572 44.7941 16.5136 44.4413 16.0285C44.0884 15.5412 43.912 14.781 43.912 13.7478V5.39131H46.4301V13.6007C46.4301 14.1006 46.4847 14.4554 46.5939 14.6676C46.7031 14.8797 46.8858 14.9868 47.142 14.9868C47.3604 14.9868 47.5704 14.9196 47.7721 14.7852C47.9737 14.6507 48.1207 14.4806 48.2194 14.2749V5.38921H50.7353V16.5766Z" fill="black"/>
<path d="M57.5757 3.29296H55.0765V16.5762H52.6131V3.29296H50.1139V1.26843H57.5757V3.29296Z" fill="black"/>
<path d="M63.649 16.5766H61.6791L61.4607 15.2073H61.4062C60.8706 16.2406 60.0684 16.7572 58.9973 16.7572C58.2559 16.7572 57.7078 16.5136 57.355 16.0285C57.0022 15.5412 56.8257 14.781 56.8257 13.7478V5.39131H59.3438V13.6007C59.3438 14.1006 59.3984 14.4554 59.5076 14.6676C59.6168 14.8797 59.7995 14.9868 60.0558 14.9868C60.2741 14.9868 60.4842 14.9196 60.6858 14.7852C60.8874 14.6507 61.0344 14.4806 61.1331 14.2749V5.38921H63.649V16.5766Z" fill="black"/>
<path d="M71.9825 7.17833C71.8291 6.4727 71.5834 5.96236 71.2432 5.64524C70.903 5.32812 70.4347 5.17061 69.8382 5.17061C69.3762 5.17061 68.9436 5.30082 68.5424 5.56333C68.1413 5.82585 67.8305 6.16817 67.6121 6.5945H67.5932V0.701538H65.1675V16.5743H67.2467L67.5028 15.5159H67.5575C67.7528 15.8939 68.0447 16.19 68.4332 16.4105C68.8218 16.629 69.2544 16.7382 69.729 16.7382C70.5796 16.7382 71.2075 16.3454 71.6087 15.562C72.0098 14.7766 72.2113 13.5522 72.2113 11.8848V10.1143C72.2113 8.86473 72.1336 7.88398 71.9825 7.17833ZM69.6744 11.7419C69.6744 12.5567 69.6408 13.1952 69.5736 13.6572C69.5064 14.1192 69.3951 14.449 69.2355 14.6422C69.078 14.8375 68.8637 14.9341 68.597 14.9341C68.3891 14.9341 68.198 14.8858 68.0216 14.7871C67.8452 14.6905 67.7024 14.5435 67.5932 14.3503V8.00158C67.6772 7.69706 67.8242 7.44925 68.0321 7.25394C68.2379 7.05863 68.4648 6.96202 68.7062 6.96202C68.9625 6.96202 69.1599 7.06283 69.2985 7.26234C69.4392 7.46395 69.5358 7.79998 69.5904 8.2746C69.645 8.74923 69.6723 9.42336 69.6723 10.2991V11.7419H69.6744Z" fill="black"/>
<path d="M75.7836 12.3867C75.7836 13.1049 75.8046 13.6426 75.8466 14.0017C75.8886 14.3608 75.9768 14.6213 76.1112 14.7872C76.2456 14.951 76.4514 15.0328 76.7307 15.0328C77.1067 15.0328 77.3671 14.8859 77.5057 14.5939C77.6464 14.302 77.722 13.8148 77.7346 13.1344L79.9062 13.2624C79.9188 13.359 79.925 13.4934 79.925 13.6635C79.925 14.6968 79.6415 15.4697 79.0766 15.98C78.5117 16.4903 77.7115 16.7465 76.6782 16.7465C75.4371 16.7465 74.5676 16.358 74.0699 15.5789C73.5701 14.7998 73.3223 13.5964 73.3223 11.9666V10.0135C73.3223 8.33554 73.5806 7.10907 74.0972 6.33623C74.6139 5.56337 75.498 5.17695 76.7517 5.17695C77.6149 5.17695 78.2785 5.33446 78.7406 5.65158C79.2026 5.9687 79.5281 6.46013 79.7171 7.13007C79.9062 7.80001 80.0006 8.72407 80.0006 9.9043V11.8196H75.7836V12.3867ZM76.1028 7.11537C75.9747 7.27288 75.8907 7.5312 75.8466 7.89031C75.8046 8.24944 75.7836 8.79337 75.7836 9.52425V10.3265H77.6254V9.52425C77.6254 8.80597 77.6002 8.26204 77.5519 7.89031C77.5036 7.5186 77.4154 7.25818 77.2872 7.10487C77.1592 6.95366 76.9618 6.87596 76.695 6.87596C76.4262 6.87806 76.2288 6.95786 76.1028 7.11537Z" fill="black"/>
<path fill-rule="evenodd" clip-rule="evenodd" d="M22.7233 0.533433C23.8217 0.827451 24.6849 1.69061 24.9789 2.78897C25.5102 4.77779 25.5124 8.92975 25.5124 8.92975C25.5124 8.92975 25.5124 13.0817 24.9789 15.0706C24.6849 16.1689 23.8217 17.0321 22.7233 17.326C20.7346 17.8595 12.7561 17.8595 12.7561 17.8595C12.7561 17.8595 4.77779 17.8595 2.78897 17.326C1.69061 17.0321 0.827451 16.1689 0.533433 15.0706C0 13.0817 0 8.92975 0 8.92975C0 8.92975 0 4.77779 0.533433 2.78897C0.827451 1.69061 1.69061 0.827451 2.78897 0.533433C4.77779 0 12.7561 0 12.7561 0C12.7561 0 20.7346 0 22.7233 0.533433ZM16.8306 8.9302L10.2026 12.7566V5.10374L16.8306 8.9302Z" fill="#E00101"/>
</svg>
