<svg width="30" height="30" viewBox="0 0 30 30" fill="none" xmlns="http://www.w3.org/2000/svg">
<path d="M5.6624 30H23.4168C26.4954 30 29 27.4942 29 24.4139V5.19445H26.9398V24.4132C26.9398 26.357 25.3596 27.938 23.4168 27.938H5.6624C4.77856 27.938 4.06023 27.2186 4.06023 26.335V2.06129H23.2369V25.1608H25.2971V0H2V26.3357C2 28.3565 3.64269 30 5.6624 30Z" fill="#303D4B"/>
<path d="M5.99999 13.3077H17.0957V3.80786H5.99999V13.3077ZM15.0355 11.2464H8.06022V5.86915H15.0355V11.2464Z" fill="#303D4B"/>
<path d="M5.84033 15.709H21.1719V17.7703H5.84033V15.709Z" fill="#303D4B"/>
<path d="M5.84033 20.5002H21.1719V22.5615H5.84033V20.5002Z" fill="#303D4B"/>
</svg>
