<svg width="16" height="26" viewBox="0 0 16 26" fill="none" xmlns="http://www.w3.org/2000/svg">
<path d="M7.9997 26C7.73219 26 7.47576 25.8951 7.28636 25.7079L2.9191 21.3903L4.34578 19.9799L7.9997 23.5922L11.6536 19.9799L13.0803 21.3903L8.71304 25.7079C8.52364 25.8951 8.2672 26 7.9997 26Z" fill="#2F3C4A"/>
<path d="M15.605 4.76284C15.605 4.62578 15.521 4.45463 15.4188 4.35746C14.0995 3.10016 12.7679 1.85636 11.4466 0.600986C11.2865 0.448488 11.1277 0.385429 10.9045 0.386073C8.17283 0.391864 3.08507 0.39122 1.15658 0.39122C0.733517 0.39122 0.390515 0.73032 0.390515 1.14856V18.0154C0.390515 18.4336 0.733517 18.7727 1.15658 18.7727H4.26507V17.621H1.56857V1.55394H10.3975V4.5801C10.3975 4.99834 10.7405 5.33744 11.1635 5.33744H14.4139V17.621H11.8847V18.7727H14.8376C15.26 18.7727 15.603 18.4349 15.6037 18.0167C15.6076 15.623 15.6121 8.7812 15.6043 4.76155L15.605 4.76284ZM11.5944 4.17987V2.33573C12.2459 2.9483 12.8707 3.53577 13.5567 4.17987H11.5944Z" fill="#2F3C4A"/>
<path d="M11.4942 19.1595V17.2355H14.0234V5.72416H11.1635C10.5257 5.72416 10.0069 5.21132 10.0069 4.58074V1.94001H1.95908V17.2349H4.65624V19.1588H1.15658C0.518734 19.1588 0 18.646 0 18.0154V1.14856C0 0.842923 0.120409 0.555943 0.338446 0.339743C0.557135 0.124186 0.847417 0.00514762 1.15658 0.00514762C3.19506 0.00514762 8.2262 0.00514762 10.9038 0H10.9071C11.2286 0 11.4863 0.102309 11.7174 0.32237C12.3188 0.893756 12.9332 1.47286 13.5274 2.03267C14.2375 2.70186 14.9717 3.39421 15.6902 4.07885C15.8725 4.25258 15.9955 4.52669 15.9955 4.76155C16.0033 8.70592 15.9994 15.4886 15.9955 18.018C15.9942 18.6473 15.4755 19.1595 14.8389 19.1595H11.4942ZM12.2752 18.3873H14.8376C15.0446 18.3873 15.2132 18.2213 15.2132 18.0167C15.2177 15.4879 15.2216 8.70785 15.2132 4.76412C15.2106 4.73388 15.178 4.66439 15.1468 4.63543C14.4295 3.95209 13.696 3.26038 12.9866 2.59183C12.3923 2.03138 11.7773 1.45163 11.1746 0.8796C11.0874 0.796595 11.0268 0.772143 10.9058 0.772143H10.9038C8.22555 0.777291 3.19376 0.777291 1.15527 0.777291C1.05504 0.777291 0.960667 0.815898 0.889723 0.886035C0.81878 0.956171 0.779728 1.04947 0.779728 1.14921V18.016C0.779728 18.2207 0.9483 18.3873 1.15527 18.3873H3.87326V18.0077H1.17805V1.16787H10.788V4.5801C10.788 4.78472 10.9565 4.95137 11.1635 4.95137H14.8044V18.007H12.2752V18.3873ZM14.5337 4.56594H11.2032V1.43554L14.5337 4.5653V4.56594ZM11.9849 3.7938H12.5791L11.9849 3.23528V3.7938Z" fill="#2F3C4A"/>
<path d="M9.00853 10.5308H6.99087V24.2607H9.00853V10.5308Z" fill="#2F3C4A"/>
</svg>
