<svg width="45" height="24" viewBox="0 0 45 24" fill="none" xmlns="http://www.w3.org/2000/svg">
<path opacity="0.6" d="M30.952 14.0703C31.4937 13.9598 31.9666 13.6746 32.417 13.3938C33.6801 12.6069 34.9431 11.8111 36.0624 10.8241C36.9768 10.0178 37.8342 9.15027 38.4942 8.11102C39.012 7.29575 39.3157 6.38492 39.2693 5.43975C39.2289 4.61701 38.8399 3.85699 38.1844 3.30153C37.083 2.3698 35.7646 1.98008 34.358 1.81882C33.8447 1.76058 33.3344 1.68443 32.664 1.59634C32.8824 1.48285 32.9678 1.40073 33.0545 1.39924C34.2757 1.38729 35.5028 1.3201 36.7179 1.40372C37.9734 1.49032 39.2334 1.64113 40.456 1.98008C41.3225 2.22048 42.153 2.54898 42.9043 3.04919C44.7374 4.2706 45.1519 5.8877 44.3094 7.89601C43.8126 9.08158 43.0494 10.088 42.1755 11.0122C40.9095 12.3531 39.4564 13.4685 37.9435 14.5212C35.6449 16.1189 33.1623 17.3761 30.6288 18.5333C28.8959 19.3247 27.1046 19.9922 25.2849 20.579C23.8229 21.0508 22.3653 21.5241 20.8689 21.8691C19.109 22.2737 17.3507 22.6813 15.5519 22.9038C14.443 23.0412 13.3401 23.1845 12.2208 23.1935C11.3289 23.1995 10.4355 23.3219 9.54512 23.2995C7.98431 23.2577 6.41752 23.1144 4.92106 22.6754C3.71491 22.3215 2.49978 21.8676 1.64081 20.8567C0.757898 19.8189 0.485543 18.6692 0.952439 17.3313C1.46423 15.862 2.36809 14.6735 3.41562 13.57C4.70407 12.2142 6.1736 11.072 7.71495 10.0178C7.78828 9.96703 7.87358 9.93418 8.02771 9.97748C7.83168 10.1761 7.64013 10.3791 7.4411 10.5733C6.67491 11.3213 5.93715 12.0828 5.41339 13.037C4.89262 13.9866 4.68761 14.9676 4.9465 16.0218C5.08567 16.5892 5.42985 17.0611 5.85784 17.4388C6.87095 18.3347 8.08158 18.8066 9.41643 18.9977C10.5717 19.1619 11.7255 19.3456 12.8957 19.2769C13.7831 19.2232 14.669 19.1127 15.5534 19.0186C16.0892 18.9619 16.6219 18.8917 17.1561 18.8275L17.1935 18.6677C16.7162 18.387 16.2403 18.1048 15.7614 17.8271C14.9474 17.3522 14.1348 16.8774 13.3177 16.4071C12.4094 15.8844 12.0532 15.0214 11.9814 14.0553C11.8766 12.6726 11.8811 11.281 11.8033 9.89535C11.7374 8.71277 11.5983 7.53466 11.5309 6.35207C11.4771 5.41137 11.4756 4.4871 12.0771 3.64645C12.4498 3.12384 12.9675 2.86104 13.4898 2.60123C13.9283 2.38323 14.4221 2.27722 14.8905 2.12043C16.5366 1.57394 18.1797 1.01997 19.8303 0.485417C20.1311 0.388361 20.4588 0.354018 20.7761 0.328634C22.084 0.224113 23.332 0.433157 24.5681 0.902011C26.1678 1.50824 27.7945 2.05026 29.4361 2.53106C30.7919 2.92675 31.6464 4.29299 31.5715 5.49798C31.4833 6.93291 31.5192 8.37681 31.377 9.80427C31.2932 10.6464 31.3127 11.4856 31.2438 12.3232C31.1974 12.8832 31.0598 13.4357 30.9505 14.0658L30.952 14.0703ZM23.763 11.6379C24.1985 11.7125 24.4289 11.6453 24.6818 11.4856C25.237 11.1362 25.4121 10.5762 25.5977 10.0193C25.8162 9.36528 25.689 9.00842 25.1278 8.55599C23.8184 8.51866 23.1809 9.4713 23.3859 11.2079C23.5116 11.3497 23.6568 11.5154 23.763 11.6364L23.763 11.6379ZM17.4958 15.6022C18.048 17.3522 18.3368 17.6628 19.4143 17.618C19.5609 17.4881 19.745 17.3283 19.8453 17.2388C19.953 15.5888 19.1225 14.5764 17.8385 14.7198C17.7263 15.008 17.6036 15.3215 17.4958 15.6007L17.4958 15.6022ZM16.9332 13.5924C17.5048 13.0982 17.65 12.598 17.4075 11.9574C17.0155 10.9256 16.5441 10.5165 15.7375 10.5344C15.6612 10.6046 15.5639 10.6823 15.4801 10.7718C15.3978 10.8629 15.3289 10.966 15.2676 11.0451C15.2003 12.5607 15.8392 13.5252 16.9317 13.5909L16.9332 13.5924ZM27.3455 10.4941C25.9897 10.63 25.3133 11.9798 25.8431 13.3729C26.0077 13.4506 26.2052 13.5447 26.3728 13.6238C27.4278 13.1803 27.9127 12.2486 27.7645 10.9465C27.6463 10.8181 27.4967 10.6569 27.3455 10.4941ZM15.0686 9.11144C15.2317 7.92139 14.8396 7.07775 13.9357 6.47152C13.412 6.4755 13.0673 6.8921 12.9017 7.7213C13.599 9.27121 13.6649 9.34587 14.5568 9.58179C14.7154 9.43695 14.8935 9.2727 15.0686 9.11144ZM29.035 9.43546C30.2442 8.72621 30.3175 6.78957 29.6725 6.49542L29.0814 6.49542C28.3317 7.08671 27.9456 7.787 27.9651 8.69933C27.9711 9.0338 28.0908 9.26972 28.4155 9.43546L29.035 9.43546ZM28.8211 12.4233C28.1057 13.0624 27.7077 13.7283 27.8005 14.6377C27.8379 15.0109 27.9471 15.2528 28.3272 15.3409C29.5573 14.9766 30.114 13.7627 29.5857 12.4576C29.3523 12.4472 29.0874 12.4352 28.8225 12.4233L28.8211 12.4233ZM25.1996 16.6713C25.3313 16.3219 25.46 15.98 25.5947 15.6261C25.4645 15.3036 25.3373 14.9915 25.2131 14.6839C25.0096 14.675 24.8629 14.6601 24.7163 14.663C24.5711 14.666 24.4244 14.6884 24.3152 14.6989C23.3979 15.5216 23.0836 16.2906 23.2991 17.2074C23.9755 17.2208 24.5651 16.9222 25.2011 16.6728L25.1996 16.6713ZM23.0073 3.52252C22.9774 2.99543 22.9893 2.95661 22.6781 2.85507C21.9343 2.61019 21.1726 2.63408 20.4244 2.83715C20.0862 2.92824 19.95 3.17162 20.0847 3.51804C21.0724 4.07798 21.9313 4.08544 23.0073 3.52401L23.0073 3.52252Z" fill="white"/>
</svg>
